<svg width="1129" height="197" viewBox="0 0 1129 197" fill="none" xmlns="http://www.w3.org/2000/svg">
<rect width="1128" height="197" rx="5" fill="#28293D"/>
<path d="M124.264 119.032C123.731 120.163 123.315 121.272 123.016 122.36C122.739 123.427 122.6 124.461 122.6 125.464C122.6 126.573 122.76 127.491 123.08 128.216C123.421 128.963 123.955 129.517 124.68 129.88C125.427 130.264 126.429 130.456 127.688 130.456H130.44C131.805 130.456 132.829 130.339 133.512 130.104C134.195 129.869 134.653 129.464 134.888 128.888C135.144 128.312 135.272 127.459 135.272 126.328V116.28H139.336V126.328C139.336 129.016 138.611 131.139 137.16 132.696C135.731 134.275 133.491 135.064 130.44 135.064H127.688C125.768 135.064 124.125 134.637 122.76 133.784C121.395 132.931 120.36 131.768 119.656 130.296C118.952 128.845 118.6 127.235 118.6 125.464C118.6 124.163 118.824 122.776 119.272 121.304C119.72 119.832 120.253 118.477 120.872 117.24L124.264 119.032ZM145.416 125.176C144.968 125.709 144.371 126.147 143.624 126.488C142.899 126.829 142.109 127 141.256 127C140.189 127 139.24 126.701 138.408 126.104C137.597 125.507 136.957 124.707 136.488 123.704C136.04 122.68 135.816 121.571 135.816 120.376H139.336C139.336 121.08 139.507 121.592 139.848 121.912C140.211 122.232 140.723 122.392 141.384 122.392C142.024 122.392 142.525 122.232 142.888 121.912C143.251 121.571 143.432 121.059 143.432 120.376L143.4 116.28H147.464V120.376C147.464 121.059 147.635 121.56 147.976 121.88C148.317 122.2 148.797 122.371 149.416 122.392C150.035 122.371 150.504 122.211 150.824 121.912C151.144 121.592 151.304 121.08 151.304 120.376V116.28H155.368V120.44C155.368 121.144 155.528 121.645 155.848 121.944C156.189 122.243 156.733 122.392 157.48 122.392H159.816L160.04 124.824L159.816 127H157.64C156.701 127 155.869 126.84 155.144 126.52C154.419 126.179 153.864 125.731 153.48 125.176C153.117 125.688 152.541 126.125 151.752 126.488C150.963 126.829 150.195 127 149.448 127C148.616 127 147.859 126.84 147.176 126.52C146.515 126.179 145.928 125.731 145.416 125.176ZM159.496 122.392H166.184L166.44 124.632L166.184 127H159.496V122.392ZM165.84 122.392H172.528L172.784 124.632L172.528 127H165.84V122.392ZM172.184 122.392H178.872L179.128 124.632L178.872 127H172.184V122.392ZM178.527 122.392H185.216L185.472 124.632L185.216 127H178.527V122.392ZM184.871 122.392H191.559L191.815 124.632L191.559 127H184.871V122.392ZM191.215 122.392H192.847C193.53 122.392 194.02 122.275 194.319 122.04C194.639 121.805 194.799 121.379 194.799 120.76V105.624H198.863V120.76C198.863 122.168 198.554 123.341 197.935 124.28C197.316 125.219 196.548 125.912 195.631 126.36C194.735 126.787 193.839 127 192.943 127H191.215V122.392ZM200.719 127C199.844 127 198.98 126.787 198.127 126.36C197.295 125.912 196.591 125.229 196.015 124.312C195.46 123.373 195.183 122.189 195.183 120.76L198.863 120.92C198.863 121.475 199.002 121.859 199.279 122.072C199.578 122.285 200.058 122.392 200.719 122.392H201.647L201.871 124.856L201.647 127H200.719ZM201.34 122.392H214.332C215.377 122.392 216.177 122.189 216.732 121.784C217.287 121.379 217.564 120.749 217.564 119.896C217.564 119.064 217.34 118.392 216.892 117.88C216.465 117.347 215.804 117.08 214.908 117.08C214.396 117.08 213.948 117.165 213.564 117.336C213.18 117.507 212.807 117.773 212.444 118.136C212.103 118.477 211.708 118.947 211.26 119.544L206.812 125.496L203.836 123.352L207.804 117.432C208.977 115.725 210.108 114.477 211.196 113.688C212.305 112.877 213.564 112.472 214.972 112.472C216.401 112.472 217.607 112.824 218.588 113.528C219.569 114.211 220.305 115.117 220.796 116.248C221.308 117.379 221.564 118.605 221.564 119.928C221.564 121.229 221.265 122.424 220.668 123.512C220.071 124.579 219.217 125.432 218.108 126.072C217.02 126.691 215.761 127 214.332 127H201.34V122.392ZM205.34 105.624H209.404V120.76L205.372 122.392L205.34 105.624ZM225.527 105.624H229.591V127H225.527V105.624Z" fill="white"/>
<path d="M252.005 127C250.49 127 249.199 126.627 248.133 125.88C247.087 125.133 246.341 124.163 245.893 122.968C245.445 121.752 245.349 120.483 245.605 119.16C245.903 117.603 246.213 116.163 246.533 114.84L250.277 115.768L250.085 116.632C249.722 118.147 249.509 119.224 249.445 119.864C249.338 120.611 249.509 121.219 249.957 121.688C250.405 122.157 251.087 122.392 252.005 122.392H265.765C266.639 122.392 267.279 122.2 267.685 121.816C268.111 121.432 268.314 120.92 268.293 120.28C268.271 119.32 267.994 117.539 267.461 114.936L271.301 113.976C272.005 117.005 272.357 119.213 272.357 120.6C272.357 121.667 272.111 122.691 271.621 123.672C271.151 124.653 270.447 125.453 269.509 126.072C268.57 126.691 267.429 127 266.085 127H252.005ZM254.789 111.64C255.386 111.64 255.834 111.64 256.133 111.64C256.453 111.64 256.922 111.64 257.541 111.64C258.074 111.64 258.618 111.64 259.173 111.64C259.173 112.216 259.173 112.643 259.173 112.92C259.173 113.197 259.173 113.624 259.173 114.2C259.173 114.605 259.173 115.021 259.173 115.448C258.17 115.448 257.423 115.448 256.933 115.448C256.463 115.448 255.749 115.448 254.789 115.448C254.789 114.573 254.789 113.933 254.789 113.528C254.789 113.101 254.789 112.472 254.789 111.64ZM258.917 111.64C259.898 111.64 260.623 111.64 261.093 111.64C261.583 111.64 262.309 111.64 263.269 111.64C263.269 112.515 263.269 113.155 263.269 113.56C263.269 113.965 263.269 114.595 263.269 115.448C262.287 115.448 261.551 115.448 261.061 115.448C260.591 115.448 259.877 115.448 258.917 115.448C258.917 115.021 258.917 114.595 258.917 114.168C258.917 113.592 258.917 113.165 258.917 112.888C258.917 112.611 258.917 112.195 258.917 111.64ZM275.569 122.392H284.433C285.115 122.392 285.627 122.232 285.969 121.912C286.331 121.571 286.513 121.048 286.513 120.344V105.624H290.577V120.76C290.577 122.168 290.267 123.341 289.649 124.28C289.03 125.219 288.262 125.912 287.345 126.36C286.449 126.787 285.553 127 284.657 127H275.569V122.392ZM276.017 106.264L280.081 105.976L281.009 120.088L276.913 120.376L276.017 106.264ZM300.828 127C299.313 127 298.065 126.701 297.084 126.104C296.124 125.485 295.42 124.643 294.972 123.576C294.524 122.509 294.299 121.251 294.299 119.8V105.624H298.364V119.8C298.364 120.611 298.406 121.187 298.492 121.528C298.598 121.869 298.812 122.104 299.132 122.232C299.473 122.339 300.038 122.392 300.828 122.392H301.98L302.172 124.76L301.98 127H300.828ZM301.652 122.392H308.341L308.597 124.632L308.341 127H301.652V122.392ZM307.996 122.392H314.684L314.94 124.632L314.684 127H307.996V122.392ZM314.34 122.392H321.028L321.284 124.632L321.028 127H314.34V122.392ZM320.62 122.392H321.932C322.849 122.392 323.713 122.371 324.524 122.328C324.033 121.816 323.649 121.251 323.372 120.632C323.116 119.992 322.988 119.331 322.988 118.648C322.988 117.496 323.276 116.397 323.852 115.352C324.449 114.307 325.26 113.464 326.284 112.824C327.329 112.184 328.481 111.864 329.74 111.864C330.934 111.864 332.044 112.184 333.068 112.824C334.092 113.464 334.892 114.307 335.468 115.352C336.065 116.397 336.364 117.485 336.364 118.616C336.364 119.299 336.225 119.96 335.948 120.6C335.67 121.24 335.297 121.816 334.828 122.328C335.681 122.371 336.534 122.392 337.388 122.392H338.668L338.924 124.696L338.668 127H336.524C335.542 127 334.444 126.893 333.228 126.68C332.012 126.445 330.817 126.115 329.644 125.688C328.492 126.115 327.308 126.445 326.092 126.68C324.876 126.893 323.798 127 322.86 127H320.62V122.392ZM329.644 121.88C330.412 121.667 331.062 121.293 331.596 120.76C332.15 120.227 332.428 119.608 332.428 118.904C332.428 118.136 332.161 117.496 331.628 116.984C331.116 116.451 330.486 116.184 329.74 116.184C328.95 116.184 328.289 116.451 327.756 116.984C327.244 117.496 326.988 118.136 326.988 118.904C326.988 119.608 327.233 120.227 327.724 120.76C328.236 121.272 328.876 121.645 329.644 121.88ZM325.548 105.944C326.145 105.944 326.593 105.944 326.892 105.944C327.212 105.944 327.681 105.944 328.3 105.944C328.833 105.944 329.377 105.944 329.932 105.944C329.932 106.52 329.932 106.947 329.932 107.224C329.932 107.501 329.932 107.928 329.932 108.504C329.932 108.909 329.932 109.325 329.932 109.752C328.929 109.752 328.182 109.752 327.692 109.752C327.222 109.752 326.508 109.752 325.548 109.752C325.548 108.877 325.548 108.237 325.548 107.832C325.548 107.405 325.548 106.776 325.548 105.944ZM329.676 105.944C330.657 105.944 331.382 105.944 331.852 105.944C332.342 105.944 333.068 105.944 334.028 105.944C334.028 106.819 334.028 107.459 334.028 107.864C334.028 108.269 334.028 108.899 334.028 109.752C333.046 109.752 332.31 109.752 331.82 109.752C331.35 109.752 330.636 109.752 329.676 109.752C329.676 109.325 329.676 108.899 329.676 108.472C329.676 107.896 329.676 107.469 329.676 107.192C329.676 106.915 329.676 106.499 329.676 105.944ZM338.34 122.392H339.172C339.577 122.392 339.897 122.296 340.132 122.104C340.367 121.891 340.537 121.549 340.644 121.08L341.476 118.008C341.945 116.152 342.735 114.733 343.844 113.752C344.953 112.771 346.287 112.28 347.844 112.28C349.06 112.28 350.159 112.621 351.14 113.304C352.121 113.965 352.889 114.893 353.444 116.088C353.999 117.261 354.276 118.584 354.276 120.056C354.276 121.805 353.988 123.245 353.412 124.376C352.836 125.507 352.111 126.328 351.236 126.84C350.361 127.331 349.465 127.576 348.548 127.576C347.759 127.576 346.916 127.405 346.02 127.064C345.124 126.723 343.737 126.104 341.86 125.208L341.028 124.792L342.82 120.856C342.969 120.92 343.108 120.984 343.236 121.048C344.964 121.88 346.169 122.435 346.852 122.712C347.535 122.968 348.153 123.096 348.708 123.096C349.263 123.096 349.689 122.861 349.988 122.392C350.308 121.901 350.468 121.133 350.468 120.088C350.468 119.021 350.244 118.2 349.796 117.624C349.348 117.048 348.751 116.739 348.004 116.696C347.364 116.675 346.799 116.888 346.308 117.336C345.839 117.784 345.497 118.445 345.284 119.32L344.356 122.84C344.164 123.629 343.801 124.344 343.268 124.984C342.756 125.603 342.137 126.093 341.412 126.456C340.708 126.819 339.983 127 339.236 127H338.34V122.392Z" fill="white"/>
<path d="M130.3 74H127.3L126.46 71.48H120.88L120.04 74H117.06L121.96 60H125.38L130.3 74ZM123.68 63.18L121.76 68.9H125.6L123.68 63.18ZM161.519 60H164.359V74H161.619V64.92L157.679 71.42H157.359L153.419 64.94V74H150.659V60H153.499L157.519 66.62L161.519 60ZM188.728 60V71.36H194.068V74H185.968V60H188.728ZM227.027 74H224.027L223.187 71.48H217.607L216.767 74H213.787L218.687 60H222.107L227.027 74ZM220.407 63.18L218.487 68.9H222.327L220.407 63.18ZM252.946 66.8L258.326 74H255.146L250.146 67.44V74H247.386V60H250.146V66.18L254.946 60H258.126L252.946 66.8ZM291.042 74H288.042L287.202 71.48H281.622L280.782 74H277.802L282.702 60H286.122L291.042 74ZM284.422 63.18L282.502 68.9H286.342L284.422 63.18ZM309.346 60H319.646V62.64H315.866V74H313.106V62.64H309.346V60ZM342.947 60V71.36H348.287V74H340.187V60H342.947ZM381.245 74H378.245L377.405 71.48H371.825L370.985 74H368.005L372.905 60H376.325L381.245 74ZM374.625 63.18L372.705 68.9H376.545L374.625 63.18ZM406.072 74.28C404.699 74.28 403.539 73.9733 402.592 73.36C401.646 72.7467 400.972 71.9 400.572 70.82L402.932 69.44C403.479 70.8667 404.552 71.58 406.152 71.58C406.899 71.58 407.459 71.4467 407.832 71.18C408.206 70.9133 408.392 70.5533 408.392 70.1C408.392 69.6067 408.172 69.2267 407.732 68.96C407.292 68.68 406.506 68.38 405.372 68.06C404.146 67.6867 403.179 67.2533 402.472 66.76C401.592 66.1067 401.152 65.1467 401.152 63.88C401.152 62.6 401.599 61.5933 402.492 60.86C403.386 60.1 404.472 59.72 405.752 59.72C406.872 59.72 407.866 59.9933 408.732 60.54C409.599 61.0867 410.272 61.86 410.752 62.86L408.432 64.2C407.872 63 406.979 62.4 405.752 62.4C405.192 62.4 404.746 62.5333 404.412 62.8C404.079 63.0533 403.912 63.3867 403.912 63.8C403.912 64.24 404.092 64.6 404.452 64.88C404.852 65.16 405.559 65.4533 406.572 65.76L407.532 66.08C407.706 66.1333 408.006 66.2467 408.432 66.42C408.832 66.5667 409.126 66.7067 409.312 66.84C409.966 67.24 410.406 67.6533 410.632 68.08C410.979 68.64 411.152 69.3 411.152 70.06C411.152 71.3533 410.679 72.38 409.732 73.14C408.786 73.9 407.566 74.28 406.072 74.28Z" fill="#FF8B6B"/>
<path fill-rule="evenodd" clip-rule="evenodd" d="M410.667 98.1665H383.334C381.677 98.1665 380.334 99.5097 380.334 101.167V126.595C381.993 125.111 384.183 124.208 386.584 124.208H413.667V101.167C413.667 99.5096 412.324 98.1665 410.667 98.1665ZM388.667 105.75C388.253 105.75 387.917 106.086 387.917 106.5C387.917 106.914 388.253 107.25 388.667 107.25H405.334C405.748 107.25 406.084 106.914 406.084 106.5C406.084 106.086 405.748 105.75 405.334 105.75H388.667ZM387.917 114.833C387.917 114.419 388.253 114.083 388.667 114.083H397.001C397.415 114.083 397.751 114.419 397.751 114.833C397.751 115.247 397.415 115.583 397.001 115.583H388.667C388.253 115.583 387.917 115.247 387.917 114.833ZM383.334 127.333H413.667V136.833C413.667 138.49 412.324 139.833 410.667 139.833H383.334C381.677 139.833 380.334 138.49 380.334 136.833V130.333C380.334 128.676 381.677 127.333 383.334 127.333Z" fill="#3FD5DF"/>
</svg>
