<svg width="336" height="252" viewBox="0 0 336 252" fill="none" xmlns="http://www.w3.org/2000/svg">
<path style="mix-blend-mode:multiply" d="M170.111 72.9053H107.941L138.353 90.4947L107.941 108.084H170.111V89.6773V72.9053Z" fill="url(#paint0_linear_2018_3293)"/>
<path d="M138.354 38.1505L107.943 20.561L77.5312 38.1505L107.943 55.7378L138.354 38.1505Z" fill="#F4F4F9"/>
<path d="M138.353 90.4949L107.941 108.084V55.7398L138.353 38.1504V90.4949Z" fill="#B9BEE4"/>
<path d="M77.5312 90.4949L107.943 108.084V55.7398L77.5312 38.1504V90.4949Z" fill="#CCD1F6"/>
<g style="mix-blend-mode:multiply">
<path d="M124.699 55.1L121.602 56.8884V53.623L124.699 51.8325V55.1Z" fill="#D8DEF3"/>
<path d="M124.699 62.5151L121.602 64.3056V61.0403L124.699 59.252V62.5151Z" fill="#D8DEF3"/>
<path d="M124.699 69.9323L121.602 71.7228V68.4575L124.699 66.667V69.9323Z" fill="#D8DEF3"/>
<path d="M124.699 77.3493L121.602 79.1398V75.8745L124.699 74.084V77.3493Z" fill="#D8DEF3"/>
<path d="M124.699 84.7668L121.602 86.5573V83.292L124.699 81.5015V84.7668Z" fill="#D8DEF3"/>
<path d="M124.699 92.1838L121.602 93.9743V90.709L124.699 88.9185V92.1838Z" fill="#D8DEF3"/>
</g>
<g style="mix-blend-mode:multiply">
<path d="M91.1875 55.1L94.283 56.8884V53.623L91.1875 51.8325V55.1Z" fill="#D8DEF3"/>
<path d="M91.1875 62.5151L94.283 64.3056V61.0403L91.1875 59.252V62.5151Z" fill="#D8DEF3"/>
<path d="M91.1875 69.9323L94.283 71.7228V68.4575L91.1875 66.667V69.9323Z" fill="#D8DEF3"/>
<path d="M91.1875 77.3493L94.283 79.1398V75.8745L91.1875 74.084V77.3493Z" fill="#D8DEF3"/>
</g>
<path d="M141.203 28.5859L107.942 9.34863L74.6836 28.5859L107.942 47.8209L141.203 28.5859Z" fill="#F6F6FB"/>
<path d="M127.57 30.0758L107.943 18.7251L88.3164 30.0758L107.943 41.4266L127.57 30.0758Z" fill="#DAE0F5"/>
<path d="M85.7422 28.586L107.944 15.7432V18.7252L88.3175 30.0759L85.7422 28.586Z" fill="#BBC0E6"/>
<path d="M130.146 28.586L107.941 15.7432V18.7252L127.568 30.0759L130.146 28.586Z" fill="#CED3F8"/>
<path d="M141.202 28.5859L107.941 47.821V55.7399L141.202 36.5027V28.5859Z" fill="#BBC0E6"/>
<path d="M74.6836 28.5859L107.942 47.821V55.7399L74.6836 36.5027V28.5859Z" fill="#CED3F8"/>
<g style="mix-blend-mode:multiply">
<path d="M77.5312 39.8804L107.943 57.4676V55.7377L77.5312 38.1504V39.8804Z" fill="#DAE0F5"/>
</g>
<g style="mix-blend-mode:multiply">
<path d="M138.353 39.8804L107.941 57.4676V55.7377L138.353 38.1504V39.8804Z" fill="#DAE0F5"/>
</g>
<path d="M79.4531 79.0645V93.5075L88.1569 98.5417V88.4755L93.2946 91.4489V101.513L101.996 106.547V92.1019L79.4531 79.0645Z" fill="#CED3F8"/>
<g style="mix-blend-mode:multiply">
<path d="M96.8281 94.2642L99.0127 95.527V98.1025L96.8281 96.8396V94.2642Z" fill="#D8DEF3"/>
</g>
<g style="mix-blend-mode:multiply">
<path d="M84.6221 87.206L82.4375 85.9409V88.5186L84.6221 89.7814V87.206Z" fill="#D8DEF3"/>
</g>
<path d="M103.641 105.596L101.996 106.547V92.1019L103.641 91.1504V105.596Z" fill="#B9BEE4"/>
<path d="M89.799 97.5899L88.1562 98.5413V88.4751L89.799 89.4266V97.5899Z" fill="#B9BEE4"/>
<path d="M103.641 91.1503L101.996 92.1017L79.4531 79.0643L81.098 78.1128L103.641 91.1503Z" fill="#F6F6FB"/>
<path d="M89.8008 97.59L93.2957 99.6119V91.4487L89.8008 89.4268V97.59Z" fill="#423EAF"/>
<g style="mix-blend-mode:multiply">
<path d="M101.996 106.547L103.641 105.595L105.286 106.547H101.996Z" fill="#C6CBE7"/>
</g>
<g style="mix-blend-mode:multiply">
<path d="M88.1562 98.5413L89.799 97.5898L91.4439 98.5413H88.1562Z" fill="#C6CBE7"/>
</g>
<g style="mix-blend-mode:multiply">
<path d="M105.286 106.547V93.507L103.641 91.1499V105.595L105.286 106.547Z" fill="#D3D8F2"/>
</g>
<path style="mix-blend-mode:multiply" d="M122.806 27.3203L104.293 30.8905L112.591 35.6912L115.225 37.2136L127.568 30.0753L122.806 27.3203Z" fill="url(#paint1_linear_2018_3293)"/>
<path d="M110.069 10.9376C110.069 10.1635 109.938 9.50175 109.7 8.96114C111.555 8.75787 112.863 10.0964 112.863 12.553C112.863 15.7815 110.6 19.7086 107.809 21.3239C105.687 22.55 103.874 22.0851 103.125 20.3746C103.71 20.3097 104.349 20.0935 105.018 19.7064C107.809 18.0932 110.072 14.164 110.072 10.9355L110.069 10.9376Z" fill="url(#paint2_linear_2018_3293)"/>
<path d="M97.4392 9.47807C101.623 2.22086 108.405 -1.70833 112.591 0.715789L115.382 2.33115C111.196 -0.090808 104.414 3.83622 100.23 11.0956C96.0512 18.3506 96.049 26.1896 100.222 28.6158L97.4392 27.007C93.2536 24.5872 93.2557 16.7396 97.4392 9.48024V9.47807Z" fill="url(#paint3_linear_2018_3293)"/>
<path d="M100.231 28.6204L107.808 33.0015L115.382 19.8559C119.568 12.5966 119.568 4.74683 115.382 2.3292C111.197 -0.0927556 104.414 3.83427 100.231 11.0936C96.0492 18.3552 96.0471 26.2006 100.231 28.6204ZM102.754 18.4006C102.754 15.1699 105.016 11.2429 107.808 9.6275C110.599 8.0143 112.861 9.32259 112.861 12.5533C112.861 15.784 110.599 19.7089 107.808 21.3242C105.016 22.9374 102.754 21.6291 102.754 18.4006Z" fill="#EF4E16"/>
<path d="M200.357 205.823L79.8398 136.121L135.642 103.848L256.158 173.549L200.357 205.823Z" fill="#F8FAFF"/>
<path d="M160.439 206.87L39.9219 137.167L79.8423 136.121L200.359 205.823L160.439 206.87Z" fill="#DFE4F4"/>
<path d="M120.517 252L0 182.298L39.9204 137.167L160.437 206.87L120.517 252Z" fill="#EEF3FF"/>
<path d="M296.079 128.418L175.562 58.7154L215.483 57.6709L336 127.371L296.079 128.418Z" fill="#DFE4F4"/>
<path d="M256.157 173.548L135.641 103.848L175.561 58.7153L296.078 128.418L256.157 173.548Z" fill="#EEF3FF"/>
<path style="mix-blend-mode:multiply" d="M160.436 206.87L120.516 252L198.547 228.912L200.356 205.823L160.436 206.87Z" fill="url(#paint4_linear_2018_3293)"/>
<path style="mix-blend-mode:multiply" d="M296.081 128.418L256.16 173.549L334.192 150.46L336.001 127.374L296.081 128.418Z" fill="url(#paint5_linear_2018_3293)"/>
<g style="mix-blend-mode:multiply">
<path d="M240.116 164.269L235.031 161.328L220.408 169.786L191.233 169.665L146.208 143.624L181.849 130.572L176.576 127.521L140.934 140.573L126.954 132.488L148.053 111.025L142.78 107.974L130.663 120.3L118.931 113.514L113.845 116.455L126.978 124.05L112.843 138.43L94.3454 127.733L89.2617 130.673L109.156 142.18L102.328 149.126L107.602 152.177L123.269 136.24L180.99 169.622L137.452 169.442L144.697 173.631L213.269 173.916L179.229 193.603L184.313 196.544L194.165 190.846L210.208 200.125L215.294 197.184L199.248 187.905L240.116 164.269Z" fill="#DFE4F4"/>
</g>
<g style="mix-blend-mode:multiply">
<path d="M179.23 193.603L126.539 187.263L131.625 190.204L184.316 196.544L179.232 193.603H179.23ZM64.3672 151.305L69.453 154.246L107.603 152.177L102.52 149.236L64.3672 151.305ZM137.453 169.442L111.282 178.44L116.365 181.381L144.694 173.631L137.451 169.442H137.453Z" fill="#DFE4F4"/>
</g>
<g style="mix-blend-mode:multiply">
<path d="M126.539 187.263L106.579 209.828L96.4078 203.946L116.367 181.381L111.283 178.44L91.3241 201.005L77.841 193.207L63.3369 161.547L69.4524 154.246L64.3666 151.305L45.1198 174.283L19.9605 159.732L16.5195 163.623L87.881 204.895L71.3628 223.57L76.4487 226.511L92.9669 207.836L103.139 213.718L86.6204 232.393L91.704 235.334L131.624 190.203L126.539 187.263ZM59.2246 166.458L69.1847 188.201L50.2057 177.224L59.2246 166.458Z" fill="#DFE4F4"/>
</g>
<g style="mix-blend-mode:multiply">
<path d="M216.491 64.9629L187.668 65.7176L192.942 68.7688L215.2 68.1849L210.826 79.1118L216.1 82.1631L223.945 62.5669L218.671 59.5156L216.491 64.9629ZM314.682 115.043L303.837 115.327L248.571 83.3632L259.416 83.0799L254.142 80.0287L235.496 80.5174L240.769 83.5687L296.036 115.532L274.762 116.09L280.036 119.141L319.956 118.094L314.682 115.043Z" fill="#DFE4F4"/>
</g>
<g style="mix-blend-mode:multiply">
<path d="M142.78 107.974L148.053 111.025L152.977 84.2495L145.61 92.5771L142.777 107.974H142.78ZM274.761 116.087L253.228 140.43L220.054 121.243L234.838 104.527L209.351 89.7854L216.097 82.1584L210.823 79.1072L204.077 86.7342L186.193 76.3911L192.938 68.7641L187.665 65.7129L180.919 73.3399L168.813 66.3378L165.372 70.2281L226.122 105.364L214.778 118.187L194.959 106.726L176.571 127.514L181.845 130.565L196.792 113.668L249.783 144.316L234.836 161.214L240.11 164.265L280.03 119.134L274.757 116.083L274.761 116.087Z" fill="#DFE4F4"/>
</g>
<path style="mix-blend-mode:multiply" d="M68.644 114.684L49.5807 125.711C47.7372 126.777 46.2305 129.391 46.2305 131.523V144.137C46.2305 146.269 47.7372 147.141 49.5807 146.074L55.4955 142.653L59.1134 144.745L62.7314 138.469L68.6462 135.048C70.4875 133.982 71.9964 131.368 71.9964 129.235V116.622C71.9964 114.49 70.4897 113.618 68.6462 114.684H68.644Z" fill="url(#paint6_linear_2018_3293)"/>
<path d="M58.5039 135.236L59.7214 134.531V135.939L58.5039 136.644V135.236Z" fill="white"/>
<path d="M55.4727 136.99L56.6901 136.285V137.693L55.4727 138.398V136.99Z" fill="white"/>
<path d="M62.7527 132.777L61.5352 133.482V134.89L62.7527 134.185V132.777Z" fill="white"/>
<g style="mix-blend-mode:multiply">
<path d="M57.0547 131.729L59.1119 132.918L61.1692 129.35C62.3046 127.38 62.3046 125.248 61.1692 124.593C60.0337 123.935 58.1923 125.001 57.0547 126.971C55.9193 128.943 55.9193 131.073 57.0547 131.729ZM57.739 128.954C57.739 128.079 58.3521 127.01 59.1098 126.573C59.8675 126.134 60.4827 126.491 60.4827 127.367C60.4827 128.243 59.8675 129.309 59.1098 129.748C58.3521 130.187 57.739 129.83 57.739 128.954Z" fill="#D1D7F3"/>
</g>
<path style="mix-blend-mode:multiply" d="M58.5647 219.591H38.2969L52.5312 227.828L38.2969 236.061H58.5647L72.799 227.828L58.5647 219.591Z" fill="url(#paint7_linear_2018_3293)"/>
<path d="M38.2969 236.06L52.5312 227.828V215.478L38.2969 223.711V236.06Z" fill="#A3A9D0"/>
<path d="M38.2951 223.711L24.0586 215.478L38.2951 207.25L52.5294 215.478L38.2951 223.711Z" fill="#F1F1F6"/>
<path d="M38.2968 223.711L31.1797 212.868L45.414 204.638L52.5311 215.478L38.2968 223.711Z" fill="#BBC0E6"/>
<path d="M31.1779 212.868L24.0586 215.478L38.2951 207.25L45.4122 204.638L31.1779 212.868Z" fill="#F6F6FB"/>
<path d="M31.1779 212.868L24.0586 215.478V227.828L38.2951 236.061V223.711L31.1779 212.868Z" fill="#CED3F8"/>
<defs>
<linearGradient id="paint0_linear_2018_3293" x1="107.941" y1="90.4947" x2="170.111" y2="90.4947" gradientUnits="userSpaceOnUse">
<stop stop-color="#D1D7F3"/>
<stop offset="0.29" stop-color="#D5DAF4"/>
<stop offset="0.6" stop-color="#E2E6F7"/>
<stop offset="0.92" stop-color="#F8F9FD"/>
<stop offset="1" stop-color="white"/>
</linearGradient>
<linearGradient id="paint1_linear_2018_3293" x1="104.293" y1="32.268" x2="127.568" y2="32.268" gradientUnits="userSpaceOnUse">
<stop stop-color="#C4CAE9"/>
<stop offset="0.24" stop-color="#D5D9EF"/>
<stop offset="0.73" stop-color="#F3F4FA"/>
<stop offset="1" stop-color="white"/>
</linearGradient>
<linearGradient id="paint2_linear_2018_3293" x1="105.465" y1="11.409" x2="110.35" y2="19.8525" gradientUnits="userSpaceOnUse">
<stop stop-color="#FFAD02"/>
<stop offset="0.27" stop-color="#FEA403"/>
<stop offset="0.71" stop-color="#FD8B07"/>
<stop offset="1" stop-color="#FC780B"/>
</linearGradient>
<linearGradient id="paint3_linear_2018_3293" x1="110.199" y1="-0.668184" x2="95.0076" y2="25.6" gradientUnits="userSpaceOnUse">
<stop stop-color="#FFAD02"/>
<stop offset="0.27" stop-color="#FEA403"/>
<stop offset="0.71" stop-color="#FD8B07"/>
<stop offset="1" stop-color="#FC780B"/>
</linearGradient>
<linearGradient id="paint4_linear_2018_3293" x1="120.516" y1="228.912" x2="200.356" y2="228.912" gradientUnits="userSpaceOnUse">
<stop stop-color="#D1D7F3"/>
<stop offset="1" stop-color="white"/>
</linearGradient>
<linearGradient id="paint5_linear_2018_3293" x1="256.16" y1="150.46" x2="336.001" y2="150.46" gradientUnits="userSpaceOnUse">
<stop stop-color="#D1D7F3"/>
<stop offset="1" stop-color="white"/>
</linearGradient>
<linearGradient id="paint6_linear_2018_3293" x1="71.5021" y1="137.587" x2="44.564" y2="121.967" gradientUnits="userSpaceOnUse">
<stop stop-color="#EF4E16"/>
<stop offset="0.42" stop-color="#F6710F"/>
<stop offset="0.78" stop-color="#FB870A"/>
<stop offset="1" stop-color="#FD9009"/>
</linearGradient>
<linearGradient id="paint7_linear_2018_3293" x1="38.2969" y1="227.826" x2="72.799" y2="227.826" gradientUnits="userSpaceOnUse">
<stop stop-color="#C4C9E4"/>
<stop offset="0.19" stop-color="#D6DAEC"/>
<stop offset="0.48" stop-color="#ECEEF6"/>
<stop offset="0.75" stop-color="#FAFAFC"/>
<stop offset="1" stop-color="white"/>
</linearGradient>
</defs>
</svg>
