<svg width="559" height="408" viewBox="0 0 559 408" fill="none" xmlns="http://www.w3.org/2000/svg">
<path style="mix-blend-mode:multiply" d="M304.569 277.55H184.41L231.36 304.69L184.41 331.826H304.569V303.426V277.55Z" fill="url(#paint0_linear_2047_5457)"/>
<path style="mix-blend-mode:multiply" d="M380.065 56.2915H303.73L357.345 87.2911L303.73 118.287H380.065L433.682 87.2911L380.065 56.2915Z" fill="url(#paint1_linear_2047_5457)"/>
<path style="mix-blend-mode:multiply" d="M505.123 128.578H428.789L482.403 159.577L428.789 190.573H505.123L558.745 159.577L505.123 128.578Z" fill="url(#paint2_linear_2047_5457)"/>
<path style="mix-blend-mode:multiply" d="M129.951 200.864H53.6133L107.231 231.863L53.6133 262.859H129.951L183.569 231.863L129.951 200.864Z" fill="url(#paint3_linear_2047_5457)"/>
<path style="mix-blend-mode:multiply" d="M380.064 345.439H303.727L357.341 376.439L303.727 407.431H380.064L433.682 376.439L380.064 345.439Z" fill="url(#paint4_linear_2047_5457)"/>
<path d="M428.79 190.573L375.172 159.577V113.087L428.79 144.076V190.573Z" fill="#D3D7EF"/>
<path d="M428.79 144.075L482.404 113.087L428.79 82.1201L375.172 113.087L428.79 144.075Z" fill="#F0F0F5"/>
<path d="M428.79 144.076L455.602 103.267L401.981 72.2861L375.172 113.087L428.79 144.076Z" fill="#EAEDF7"/>
<path d="M455.602 103.267L482.403 113.087L428.789 82.1203L401.98 72.2861L455.602 103.267Z" fill="#DCE0F1"/>
<path d="M455.602 103.268L482.403 113.087V159.577L428.789 190.573V144.076L455.602 103.268Z" fill="#BDC0E0"/>
<path d="M303.731 118.287L250.113 87.291V40.8008L303.731 71.7894V118.287Z" fill="#D3D7EF"/>
<path d="M303.731 71.7893L357.345 40.8007L303.731 9.83398L250.113 40.8007L303.731 71.7893Z" fill="#F0F0F5"/>
<path d="M303.731 71.7895L330.543 30.9813L276.922 0L250.113 40.8008L303.731 71.7895Z" fill="#EAEDF7"/>
<path d="M330.543 30.9813L357.345 40.8008L303.731 9.83412L276.922 0L330.543 30.9813Z" fill="#DCE0F1"/>
<path d="M330.543 30.9814L357.345 40.801V87.2912L303.73 118.287V71.7896L330.543 30.9814Z" fill="#BDC0E0"/>
<path d="M53.6141 262.859L0 231.863V185.373L53.6141 216.362V262.859Z" fill="#D3D7EF"/>
<path d="M53.614 216.362L107.232 185.373L53.614 154.406L0 185.373L53.614 216.362Z" fill="#F0F0F5"/>
<path d="M53.6141 216.362L80.4266 175.554L26.8089 144.572L0 185.373L53.6141 216.362Z" fill="#EAEDF7"/>
<path d="M80.4263 175.554L107.231 185.373L53.6138 154.406L26.8086 144.572L80.4263 175.554Z" fill="#DCE0F1"/>
<path d="M80.4258 175.554L107.231 185.373V231.863L53.6133 262.859V216.362L80.4258 175.554Z" fill="#BDC0E0"/>
<path d="M303.727 407.431L250.113 376.439V329.949L303.727 360.934V407.431Z" fill="#D3D7EF"/>
<path d="M303.727 360.934L357.341 329.949L303.727 298.979L250.113 329.949L303.727 360.934Z" fill="#F0F0F5"/>
<path d="M303.727 360.934L330.54 320.126L276.922 289.148L250.113 329.949L303.727 360.934Z" fill="#EAEDF7"/>
<path d="M330.54 320.126L357.341 329.949L303.727 298.978L276.922 289.148L330.54 320.126Z" fill="#DCE0F1"/>
<path d="M330.539 320.125L357.341 329.949V376.439L303.727 407.431V360.934L330.539 320.125Z" fill="#BDC0E0"/>
<path style="mix-blend-mode:multiply" d="M298.83 136.337H178.672L225.622 163.473L178.672 190.609H298.83V162.21V136.337Z" fill="url(#paint5_linear_2047_5457)"/>
<path d="M225.764 163.393L178.672 190.61V136.264L225.764 109.044V163.393Z" fill="#BDC1E4"/>
<path d="M131.586 163.393L178.675 190.61V136.264L131.586 109.044V163.393Z" fill="#D0D4F6"/>
<g style="mix-blend-mode:multiply">
<path d="M131.586 110.994L178.675 138.218V136.264L131.586 109.044V110.994Z" fill="#DCE1F4"/>
</g>
<g style="mix-blend-mode:multiply">
<path d="M225.764 110.994L178.672 138.218V136.264L225.764 109.044V110.994Z" fill="#DCE1F4"/>
</g>
<path d="M228.049 101.862L178.673 73.3232L129.301 101.862L178.673 130.404L228.049 101.862Z" fill="#F7F7FC"/>
<path d="M228.048 101.861L178.672 130.403V136.264L228.048 107.726V101.861Z" fill="#BDC1E4"/>
<path d="M129.301 101.861L178.673 130.403V136.264L129.301 107.726V101.861Z" fill="#D0D4F6"/>
<path style="mix-blend-mode:multiply" d="M204.299 318.734H156.766V334.243H204.299V318.734Z" fill="url(#paint6_linear_2047_5457)"/>
<path d="M231.503 304.606L184.41 331.826V277.481L231.503 250.261V304.606Z" fill="#BDC1E4"/>
<path d="M137.324 304.606L184.413 331.826V277.481L137.324 250.261V304.606Z" fill="#D0D4F6"/>
<path d="M137.324 250.264L184.413 277.481L231.505 250.261L184.413 223.041L137.324 250.264Z" fill="#F6F6FB"/>
<path d="M172.683 325.044L156.766 334.243V310.43L172.68 290.769L172.683 325.044Z" fill="#BDC1E4"/>
<path d="M130.086 318.822L156.767 334.243V310.43L130.086 295.005V318.822Z" fill="#D0D4F6"/>
<path d="M130.086 295.009L156.767 310.43L172.681 290.769L146 275.348L130.086 295.009Z" fill="#DAE0F5"/>
<g style="mix-blend-mode:multiply">
<path d="M172.68 290.77L184.41 314.586V331.826L172.683 325.045L172.68 290.77Z" fill="#F1F1F6"/>
</g>
<path style="mix-blend-mode:multiply" d="M327.243 267.998H308.812L371.987 220.981L390.417 231.48L327.243 267.998Z" fill="url(#paint7_linear_2047_5457)"/>
<path d="M371.987 220.981L371.99 231.48L355.504 241.007V230.508L371.987 220.981Z" fill="#BBC0E6"/>
<path d="M308.813 257.495L235.484 215.109L298.658 178.592L371.987 220.981L308.813 257.495Z" fill="#F6F6FB"/>
<path d="M325.299 247.967V258.47L308.812 267.997V257.495L325.299 247.967Z" fill="#BBC0E6"/>
<path d="M308.813 257.495V267.997L235.484 225.612V215.109L308.813 257.495Z" fill="#CED3F8"/>
<path style="mix-blend-mode:multiply" d="M341.492 267.826H350.571L380.33 250.626L371.697 245.116L341.492 267.826Z" fill="url(#paint8_linear_2047_5457)"/>
<path d="M355.505 230.509L367.155 237.243L336.951 254.705L325.301 247.968L355.505 230.509Z" fill="#F6F6FB"/>
<path d="M367.154 237.243V242.49L336.949 259.953V254.702L367.154 237.243Z" fill="#BBC0E6"/>
<path d="M371.697 245.116V250.367L341.492 267.826V262.575L371.697 245.116Z" fill="#BBC0E6"/>
<path d="M367.154 242.494L371.695 245.116L341.49 262.575L336.949 259.953L367.154 242.494Z" fill="#F6F6FB"/>
<path d="M336.951 259.953V254.702L325.301 247.968V258.47L341.492 267.826V262.575L336.951 259.953Z" fill="#CED3F8"/>
<path style="mix-blend-mode:multiply" d="M367.156 237.243L355.506 230.509L371.989 220.982L362.812 215.672L308.133 252.189H317.999L325.301 247.968L332.6 252.189H341.299L367.156 237.243Z" fill="url(#paint9_linear_2047_5457)"/>
<path d="M308.13 219.408V252.189L244.664 215.508V182.719L308.13 219.408Z" fill="#CED3F8"/>
<path d="M308.129 252.189V219.408L335.467 171.997L362.808 187.802V220.583L308.129 252.189Z" fill="#BBC0E6"/>
<g style="mix-blend-mode:multiply">
<path d="M297.58 219.721L296.431 217.523L282.848 211.206V228.237L297.58 236.749V219.721Z" fill="#F6F6FB"/>
</g>
<path d="M295.494 218.06L280.762 209.548V226.58L295.494 235.095V218.06Z" fill="#E1E6FF"/>
<path d="M295.492 218.06L296.43 217.523V234.551L295.492 235.095V218.06Z" fill="#BBC0E6"/>
<path d="M280.762 209.548L281.699 209.007L296.431 217.523L295.494 218.06L280.762 209.548Z" fill="white"/>
<path d="M293.855 219.009L282.398 212.389V225.634L293.855 232.254V219.009Z" fill="#5652CC"/>
<path d="M293.855 232.254V231.031L283.456 225.02L282.398 225.634L293.855 232.254Z" fill="white"/>
<path d="M282.398 225.634L283.456 225.02V213.002L282.398 212.389V225.634Z" fill="#BBC0E6"/>
<path d="M289.285 216.369L288.129 215.697V227.719L289.285 228.391V216.369Z" fill="#BBC0E6"/>
<g style="mix-blend-mode:multiply">
<path d="M271.678 204.749L270.529 202.547L256.949 196.233V213.265L271.678 221.781V204.749Z" fill="#F6F6FB"/>
</g>
<path d="M269.591 203.091L254.859 194.579V211.607L269.591 220.119V203.091Z" fill="#E1E6FF"/>
<path d="M269.59 203.091L270.527 202.547V219.583L269.59 220.12V203.091Z" fill="#BBC0E6"/>
<path d="M254.859 194.579L255.797 194.035L270.529 202.547L269.591 203.091L254.859 194.579Z" fill="white"/>
<path d="M267.953 204.037L256.496 197.417V210.661L267.953 217.286V204.037Z" fill="#5652CC"/>
<path d="M267.953 217.286V216.059L257.554 210.048L256.496 210.661L267.953 217.286Z" fill="white"/>
<path d="M256.496 210.661L257.554 210.048V198.026L256.496 197.417V210.661Z" fill="#BBC0E6"/>
<path d="M263.383 201.397L262.223 200.729V212.747L263.383 213.419V201.397Z" fill="#BBC0E6"/>
<path d="M272.006 131.567L239.629 187.711L306.336 226.27L338.713 170.126L272.006 131.567Z" fill="#807DFB"/>
<path d="M338.711 170.124L306.336 226.265L307.955 227.204L338.711 173.874L369.47 191.647L371.089 188.839L338.711 170.124Z" fill="#5652CC"/>
<path style="mix-blend-mode:multiply" d="M299.949 147.716L288.109 152.792V179.194L323.38 161.261L299.949 147.716Z" fill="url(#paint10_linear_2047_5457)"/>
<path d="M288.109 149.185L299.949 142.341V158.661L288.109 179.195V149.185Z" fill="#BBC0E6"/>
<path d="M288.109 179.194L282.988 176.233V146.227L288.109 149.184V179.194Z" fill="#CED3F8"/>
<path d="M288.109 149.184L282.988 146.226V140.165L288.109 143.122V149.184Z" fill="#FC780B"/>
<path d="M299.949 142.341L288.109 149.185V143.123L299.949 136.279V142.341Z" fill="#DD3B10"/>
<path d="M299.949 136.279L288.109 143.123L282.988 140.165L294.828 133.321L299.949 136.279Z" fill="#FFAD02"/>
<path style="mix-blend-mode:multiply" d="M336.949 259.953H346.028L371.695 245.116L367.154 242.494L336.949 259.953Z" fill="url(#paint11_linear_2047_5457)"/>
<g style="mix-blend-mode:multiply">
<path d="M332.599 252.189L334.514 263.791L325.301 258.47V247.968L332.599 252.189Z" fill="#EFEFF3"/>
</g>
<path d="M328.776 208.138L327.652 207.488V240.902L328.776 241.552V208.138Z" fill="#A1A9D6"/>
<path d="M346.415 197.942L345.295 197.292L327.652 207.488L328.776 208.138L346.415 197.942Z" fill="#EFEFF4"/>
<path d="M328.777 208.138V241.551L330.736 240.419V209.27L344.458 201.342V232.659L346.416 231.524V197.942L328.777 208.138Z" fill="#C5CBEA"/>
<path d="M344.457 232.66L343.188 231.926V202.076L344.457 201.342V232.66Z" fill="#A1A9D6"/>
<path d="M343.187 231.925V202.076L330.734 209.27V239.123L343.187 231.925Z" fill="#CED3F8"/>
<defs>
<linearGradient id="paint0_linear_2047_5457" x1="184.41" y1="304.69" x2="304.569" y2="304.69" gradientUnits="userSpaceOnUse">
<stop stop-color="#C6CAE4"/>
<stop offset="0.08" stop-color="#CBCFE6"/>
<stop offset="0.6" stop-color="#F0F1F8"/>
<stop offset="0.88" stop-color="white"/>
</linearGradient>
<linearGradient id="paint1_linear_2047_5457" x1="303.73" y1="87.2874" x2="433.686" y2="87.2874" gradientUnits="userSpaceOnUse">
<stop stop-color="#C4C8E1"/>
<stop offset="0.19" stop-color="#D6D9EA"/>
<stop offset="0.48" stop-color="#ECEEF5"/>
<stop offset="0.75" stop-color="#FAFAFC"/>
<stop offset="1" stop-color="white"/>
</linearGradient>
<linearGradient id="paint2_linear_2047_5457" x1="428.789" y1="159.577" x2="558.745" y2="159.577" gradientUnits="userSpaceOnUse">
<stop stop-color="#C4C8E1"/>
<stop offset="0.19" stop-color="#D6D9EA"/>
<stop offset="0.48" stop-color="#ECEEF5"/>
<stop offset="0.75" stop-color="#FAFAFC"/>
<stop offset="1" stop-color="white"/>
</linearGradient>
<linearGradient id="paint3_linear_2047_5457" x1="53.6169" y1="231.863" x2="183.572" y2="231.863" gradientUnits="userSpaceOnUse">
<stop stop-color="#C4C8E1"/>
<stop offset="0.19" stop-color="#D6D9EA"/>
<stop offset="0.48" stop-color="#ECEEF5"/>
<stop offset="0.75" stop-color="#FAFAFC"/>
<stop offset="1" stop-color="white"/>
</linearGradient>
<linearGradient id="paint4_linear_2047_5457" x1="303.73" y1="376.435" x2="433.682" y2="376.435" gradientUnits="userSpaceOnUse">
<stop stop-color="#C4C8E1"/>
<stop offset="0.19" stop-color="#D6D9EA"/>
<stop offset="0.48" stop-color="#ECEEF5"/>
<stop offset="0.75" stop-color="#FAFAFC"/>
<stop offset="1" stop-color="white"/>
</linearGradient>
<linearGradient id="paint5_linear_2047_5457" x1="178.672" y1="163.473" x2="298.83" y2="163.473" gradientUnits="userSpaceOnUse">
<stop stop-color="#C6CAE4"/>
<stop offset="0.08" stop-color="#CBCFE6"/>
<stop offset="0.6" stop-color="#F0F1F8"/>
<stop offset="0.88" stop-color="white"/>
</linearGradient>
<linearGradient id="paint6_linear_2047_5457" x1="156.766" y1="326.491" x2="204.299" y2="326.491" gradientUnits="userSpaceOnUse">
<stop stop-color="#C6CAE4"/>
<stop offset="0.08" stop-color="#CBCFE6"/>
<stop offset="0.6" stop-color="#F0F1F8"/>
<stop offset="0.88" stop-color="white"/>
</linearGradient>
<linearGradient id="paint7_linear_2047_5457" x1="308.812" y1="244.488" x2="390.417" y2="244.488" gradientUnits="userSpaceOnUse">
<stop stop-color="#C4CAE9"/>
<stop offset="0.51" stop-color="#D8DDF0"/>
<stop offset="1" stop-color="#E8ECF7"/>
</linearGradient>
<linearGradient id="paint8_linear_2047_5457" x1="341.492" y1="256.473" x2="380.33" y2="256.473" gradientUnits="userSpaceOnUse">
<stop stop-color="#C4CAE9"/>
<stop offset="0.32" stop-color="#CDD2EB"/>
<stop offset="0.87" stop-color="#E7E8F1"/>
<stop offset="1" stop-color="#EFEFF3"/>
</linearGradient>
<linearGradient id="paint9_linear_2047_5457" x1="308.133" y1="233.931" x2="371.989" y2="233.931" gradientUnits="userSpaceOnUse">
<stop stop-color="#DAE0F5"/>
<stop offset="0.56" stop-color="#E3E6F4"/>
<stop offset="1" stop-color="#EFEFF3"/>
</linearGradient>
<linearGradient id="paint10_linear_2047_5457" x1="288.109" y1="163.455" x2="323.38" y2="163.455" gradientUnits="userSpaceOnUse">
<stop stop-color="#C4CAE9"/>
<stop offset="0.25" stop-color="#C8CEEA"/>
<stop offset="0.52" stop-color="#D6DAEF"/>
<stop offset="0.81" stop-color="#ECEEF8"/>
<stop offset="1" stop-color="white"/>
</linearGradient>
<linearGradient id="paint11_linear_2047_5457" x1="336.949" y1="251.221" x2="371.695" y2="251.221" gradientUnits="userSpaceOnUse">
<stop stop-color="#DAE0F5"/>
<stop offset="0.36" stop-color="#E3E8F7"/>
<stop offset="0.97" stop-color="#FDFDFE"/>
<stop offset="1" stop-color="white"/>
</linearGradient>
</defs>
</svg>
