<svg width="41" height="41" viewBox="0 0 41 41" fill="none" xmlns="http://www.w3.org/2000/svg">
<path opacity="0.4" d="M3.41797 10.2498C3.41797 6.47589 6.47736 3.4165 10.2513 3.4165H30.7513C34.5252 3.4165 37.5846 6.47589 37.5846 10.2498V30.7498C37.5846 34.5238 34.5252 37.5832 30.7513 37.5832H10.2513C6.47736 37.5832 3.41797 34.5238 3.41797 30.7498V10.2498Z" fill="#C7C9D9"/>
<path d="M32.5638 20.3016L37.5846 23.9165V30.7499C37.5846 34.5238 34.5252 37.5832 30.7513 37.5832H10.2513C6.47736 37.5832 3.41797 34.5238 3.41797 30.7499V23.9165L8.43877 27.5315C11.0477 29.41 14.6132 29.2158 17.0028 27.0652L23.9998 20.7679C26.3894 18.6173 29.9549 18.4231 32.5638 20.3016Z" fill="#C7C9D9"/>
<circle cx="14.5208" cy="14.5208" r="4.27083" fill="#C7C9D9"/>
<path fill-rule="evenodd" clip-rule="evenodd" d="M32.4596 2.13525C33.1673 2.13525 33.7409 2.70889 33.7409 3.4165V10.5733L34.9703 9.34386C35.4707 8.8435 36.2819 8.8435 36.7823 9.34386C37.2826 9.84422 37.2826 10.6555 36.7823 11.1558L34.5736 13.3645C33.4061 14.532 31.5132 14.532 30.3457 13.3645L28.137 11.1558C27.6366 10.6555 27.6366 9.84422 28.137 9.34386C28.6373 8.8435 29.4486 8.8435 29.9489 9.34386L31.1784 10.5733V3.4165C31.1784 2.70889 31.752 2.13525 32.4596 2.13525Z" fill="#C7C9D9"/>
</svg>
