<svg width="146" height="54" viewBox="0 0 146 54" fill="none" xmlns="http://www.w3.org/2000/svg">
<path d="M81.5349 49.6755C81.3329 49.6755 81.1435 49.6381 80.9667 49.5634C80.79 49.4803 80.6343 49.3764 80.4996 49.2518C80.3649 49.1189 80.2597 48.9652 80.1839 48.7907C80.1082 48.6079 80.0703 48.4169 80.0703 48.2175V46.7968H80.9541V48.0056C80.9541 48.1302 80.992 48.2382 81.0677 48.3296C81.1435 48.4127 81.2529 48.4542 81.396 48.4542H83.4035C83.6223 48.4542 83.8075 48.4085 83.959 48.3172C84.1105 48.2175 84.2199 48.097 84.2873 47.9558C84.363 47.8062 84.4009 47.6484 84.4009 47.4822C84.4009 47.316 84.3588 47.1623 84.2746 47.0211L82.7848 44.3916L83.656 43.8184L85.1837 46.4977C85.3941 46.8633 85.4951 47.2371 85.4867 47.6193C85.4783 47.9931 85.3857 48.3338 85.2089 48.6412C85.0322 48.9403 84.7839 49.1895 84.464 49.3889C84.1526 49.58 83.7907 49.6755 83.3782 49.6755H81.5349Z" fill="#555770"/>
<path d="M76.4696 48.4544C76.6884 48.4544 76.8778 48.3755 77.0378 48.2177C77.1977 48.0598 77.2776 47.8729 77.2776 47.6569V45.2642H78.3129V47.6569C78.3129 47.931 78.2582 48.1927 78.1488 48.442C78.0478 48.6829 77.9047 48.8948 77.7195 49.0775C77.5344 49.2603 77.3155 49.4057 77.063 49.5137C76.8189 49.6217 76.5538 49.6757 76.2676 49.6757H73.9697C73.9192 49.6757 73.8771 49.6591 73.8435 49.6259C73.8098 49.5843 73.793 49.5428 73.793 49.5013V48.6414C73.793 48.5915 73.8098 48.55 73.8435 48.5168C73.8771 48.4752 73.9192 48.4544 73.9697 48.4544H76.4696ZM74.1465 52.3551H75.3459V51.1712H74.1465V52.3551ZM76.0025 52.3551H77.2019V51.1712H76.0025V52.3551ZM75.0808 54.0001H76.2802V52.8162H75.0808V54.0001Z" fill="#555770"/>
<path d="M71.8486 48.4541H73.9697C74.0876 48.4541 74.1465 48.5123 74.1465 48.6286V49.5009C74.1465 49.6172 74.0876 49.6754 73.9697 49.6754H71.8486C71.7308 49.6754 71.6719 49.6172 71.6719 49.5009V48.6286C71.6719 48.5123 71.7308 48.4541 71.8486 48.4541Z" fill="#555770"/>
<path d="M69.7314 48.4541H71.8526C71.9704 48.4541 72.0293 48.5123 72.0293 48.6286V49.5009C72.0293 49.6172 71.9704 49.6754 71.8526 49.6754H69.7314C69.6136 49.6754 69.5547 49.6172 69.5547 49.5009V48.6286C69.5547 48.5123 69.6136 48.4541 69.7314 48.4541Z" fill="#555770"/>
<path d="M69.9083 49.5013C69.9083 49.6176 69.8494 49.6757 69.7315 49.6757H69.2896C69.0119 49.6757 68.7509 49.6259 68.5068 49.5262C68.2627 49.4182 68.0481 49.2728 67.8629 49.09C67.6778 48.9072 67.5305 48.6954 67.421 48.4544C67.32 48.2052 67.2695 47.9435 67.2695 47.6693V41.3511H68.3048V47.6569C68.3048 47.8729 68.3848 48.0598 68.5447 48.2177C68.7046 48.3755 68.894 48.4544 69.1129 48.4544H69.7315C69.782 48.4544 69.8241 48.4752 69.8578 48.5167C69.8915 48.55 69.9083 48.5915 69.9083 48.6414V49.5013Z" fill="#555770"/>
<path d="M61.9962 52.8039L61.668 51.7945L63.2967 51.271C63.6502 51.1547 63.928 50.9512 64.13 50.6604C64.3404 50.3696 64.4456 50.0456 64.4456 49.6884V45.6133H65.4809V49.5887C65.4809 49.8961 65.4346 50.1869 65.342 50.461C65.2494 50.7435 65.119 51.001 64.9506 51.2337C64.7823 51.4746 64.5803 51.6823 64.3446 51.8568C64.1089 52.0395 63.8438 52.1808 63.5492 52.2805L61.9962 52.8039Z" fill="#555770"/>
<path d="M60.8527 48.4547C61.0715 48.4547 61.2609 48.3758 61.4208 48.2179C61.5808 48.0601 61.6607 47.8731 61.6607 47.6571V45.2644H62.696V47.6571C62.696 47.9313 62.6413 48.193 62.5319 48.4422C62.4309 48.6832 62.2878 48.895 62.1026 49.0778C61.9174 49.2606 61.6986 49.406 61.4461 49.514C61.202 49.622 60.9369 49.676 60.6507 49.676H59.1104C59.0598 49.676 59.0178 49.6594 58.9841 49.6261C58.9504 49.5846 58.9336 49.5431 58.9336 49.5015V48.6416C58.9336 48.5918 58.9504 48.5503 58.9841 48.517C59.0178 48.4755 59.0598 48.4547 59.1104 48.4547H60.8527ZM59.6406 43.9061H60.8401V42.7222H59.6406V43.9061ZM61.4966 43.9061H62.696V42.7222H61.4966V43.9061Z" fill="#555770"/>
<path d="M52.0361 49.6762C51.9183 49.6762 51.8594 49.618 51.8594 49.5017V48.6293C51.8594 48.5878 51.8762 48.5504 51.9099 48.5172C51.9435 48.4756 51.9814 48.4549 52.0235 48.4549H52.4402C52.6506 48.4549 52.8358 48.3884 52.9957 48.2555C53.164 48.1226 53.2692 47.9522 53.3113 47.7445L53.5638 46.4609C53.648 46.0539 53.85 45.7174 54.1699 45.4515C54.4981 45.1857 54.8727 45.0527 55.2935 45.0527H56.0006C56.2615 45.0527 56.5056 45.1026 56.7329 45.2023C56.9601 45.2937 57.1579 45.4224 57.3263 45.5886C57.4946 45.7548 57.6251 45.95 57.7177 46.1743C57.8187 46.3986 57.8692 46.6396 57.8692 46.8971V47.6573C57.8692 47.8733 57.9491 48.0602 58.1091 48.2181C58.269 48.3759 58.4626 48.4549 58.6898 48.4549H59.1191C59.2369 48.4549 59.2959 48.513 59.2959 48.6293V49.5017C59.2959 49.5515 59.2748 49.5931 59.2327 49.6263C59.1991 49.6595 59.1612 49.6762 59.1191 49.6762H58.8666C58.6225 49.6762 58.3826 49.6305 58.1469 49.5391C57.9197 49.4477 57.7219 49.294 57.5535 49.078C57.4609 49.3189 57.3347 49.4809 57.1748 49.564C57.0148 49.6388 56.8255 49.6762 56.6066 49.6762H55.0789C54.818 49.6762 54.5739 49.618 54.3466 49.5017C54.1194 49.3854 53.93 49.1818 53.7785 48.891C53.6101 49.1818 53.3997 49.3854 53.1472 49.5017C52.9031 49.618 52.6464 49.6762 52.377 49.6762H52.0361ZM54.9653 48.4549H56.8339V46.8847C56.8339 46.6936 56.7665 46.5357 56.6319 46.4111C56.4972 46.2782 56.3331 46.2117 56.1395 46.2117H55.243C55.0747 46.2117 54.9274 46.2616 54.8011 46.3612C54.6833 46.4609 54.6076 46.5939 54.5739 46.76L54.3719 47.757C54.3382 47.9398 54.3803 48.1018 54.4981 48.243C54.616 48.3843 54.7717 48.4549 54.9653 48.4549Z" fill="#555770"/>
<path d="M52.2169 49.5013C52.2169 49.6176 52.158 49.6757 52.0401 49.6757H51.5982C51.3205 49.6757 51.0595 49.6259 50.8154 49.5262C50.5713 49.4182 50.3567 49.2728 50.1715 49.09C49.9864 48.9072 49.8391 48.6954 49.7296 48.4544C49.6286 48.2052 49.5781 47.9435 49.5781 47.6693V41.3511H50.6134V47.6569C50.6134 47.8729 50.6934 48.0598 50.8533 48.2177C51.0132 48.3755 51.2026 48.4544 51.4215 48.4544H52.0401C52.0906 48.4544 52.1327 48.4752 52.1664 48.5167C52.2 48.55 52.2169 48.5915 52.2169 48.6414V49.5013Z" fill="#555770"/>
<path d="M43.3878 51.8561C43.0259 51.8561 42.685 51.7855 42.3652 51.6442C42.0453 51.5113 41.7676 51.3285 41.5319 51.0959C41.2962 50.8633 41.1068 50.5891 40.9637 50.2734C40.8291 49.9577 40.7617 49.6212 40.7617 49.264V45.8245H41.797V49.102C41.797 49.3097 41.8391 49.5049 41.9233 49.6877C42.0074 49.8788 42.1169 50.0449 42.2515 50.1862C42.3946 50.3274 42.563 50.4354 42.7566 50.5102C42.9502 50.5933 43.1522 50.6348 43.3626 50.6348H45.5847C45.7615 50.6348 45.9298 50.6016 46.0897 50.5351C46.2497 50.4686 46.3885 50.3773 46.5064 50.2609C46.6242 50.1446 46.7168 50.0076 46.7841 49.8497C46.8515 49.6918 46.8851 49.5257 46.8851 49.3512V45.6126H47.9204V49.5381C47.9204 49.8622 47.8573 50.1613 47.7311 50.4354C47.6132 50.7179 47.4449 50.963 47.226 51.1707C47.0156 51.3867 46.7673 51.5528 46.4811 51.6692C46.2034 51.7938 45.9003 51.8561 45.5721 51.8561H43.3878ZM43.7414 44.4287H44.9408V45.6126H43.7414V44.4287Z" fill="#555770"/>
<path d="M37.5939 49.6757H36.5586V41.3511H37.5939V49.6757Z" fill="#555770"/>
<path d="M32.0434 48.4549H33.912V46.8847C33.912 46.6936 33.8447 46.5357 33.71 46.4111C33.5753 46.2782 33.4112 46.2117 33.2176 46.2117H32.3212C32.1528 46.2117 32.0055 46.2616 31.8793 46.3612C31.7614 46.4609 31.6857 46.5939 31.652 46.76L31.45 47.757C31.4163 47.9398 31.4584 48.1018 31.5763 48.243C31.6941 48.3843 31.8498 48.4549 32.0434 48.4549ZM30.3894 47.7445L30.642 46.4609C30.7261 46.0539 30.9281 45.7174 31.248 45.4515C31.5763 45.1857 31.9508 45.0527 32.3717 45.0527H33.0787C33.3396 45.0527 33.5837 45.1026 33.811 45.2023C34.0383 45.2937 34.2361 45.4224 34.4044 45.5886C34.5727 45.7548 34.7032 45.95 34.7958 46.1743C34.8968 46.3986 34.9473 46.6396 34.9473 46.8971V48.4175C34.9473 48.783 34.8295 49.0863 34.5938 49.3272C34.3581 49.5598 34.0551 49.6762 33.6847 49.6762H32.157C31.8961 49.6762 31.652 49.618 31.4247 49.5017C31.1975 49.3854 31.0081 49.1818 30.8566 48.891C30.6883 49.1818 30.4778 49.3854 30.2253 49.5017C29.9812 49.618 29.7245 49.6762 29.4552 49.6762H29.1143C28.9964 49.6762 28.9375 49.618 28.9375 49.5017V48.6293C28.9375 48.5878 28.9543 48.5504 28.988 48.5172C29.0217 48.4756 29.0638 48.4549 29.1143 48.4549H29.5183C29.7287 48.4549 29.9139 48.3884 30.0738 48.2555C30.2421 48.1226 30.3474 47.9522 30.3894 47.7445Z" fill="#555770"/>
<path d="M26.9932 48.4541H29.1143C29.2321 48.4541 29.291 48.5123 29.291 48.6286V49.5009C29.291 49.6172 29.2321 49.6754 29.1143 49.6754H26.9932C26.8753 49.6754 26.8164 49.6172 26.8164 49.5009V48.6286C26.8164 48.5123 26.8753 48.4541 26.9932 48.4541Z" fill="#555770"/>
<path d="M24.8721 48.4541H26.9932C27.111 48.4541 27.1699 48.5123 27.1699 48.6286V49.5009C27.1699 49.6172 27.111 49.6754 26.9932 49.6754H24.8721C24.7542 49.6754 24.6953 49.6172 24.6953 49.5009V48.6286C24.6953 48.5123 24.7542 48.4541 24.8721 48.4541Z" fill="#555770"/>
<path d="M22.7549 48.4541H24.876C24.9938 48.4541 25.0527 48.5123 25.0527 48.6286V49.5009C25.0527 49.6172 24.9938 49.6754 24.876 49.6754H22.7549C22.637 49.6754 22.5781 49.6172 22.5781 49.5009V48.6286C22.5781 48.5123 22.637 48.4541 22.7549 48.4541Z" fill="#555770"/>
<path d="M20.6299 48.4541H22.751C22.8688 48.4541 22.9277 48.5123 22.9277 48.6286V49.5009C22.9277 49.6172 22.8688 49.6754 22.751 49.6754H20.6299C20.512 49.6754 20.4531 49.6172 20.4531 49.5009V48.6286C20.4531 48.5123 20.512 48.4541 20.6299 48.4541Z" fill="#555770"/>
<path d="M20.8137 49.5013C20.8137 49.5428 20.7969 49.5843 20.7632 49.6259C20.7296 49.6591 20.6875 49.6757 20.637 49.6757H20.1824C19.8626 49.6757 19.568 49.6093 19.2986 49.4763C19.0377 49.3351 18.8147 49.1523 18.6295 48.928C18.3096 49.2686 17.8972 49.4722 17.3922 49.5386L13.9201 50.0247L13.7812 48.9405L15.1448 48.766L14.5388 42.2982L15.5741 42.1611L16.1549 48.6414L17.2533 48.4918C17.5311 48.4586 17.7499 48.3506 17.9098 48.1678C18.0782 47.985 18.1623 47.7441 18.1623 47.445V41.3511H19.1976V47.6693C19.1976 47.9352 19.286 48.1346 19.4628 48.2675C19.6395 48.3921 19.8415 48.4544 20.0688 48.4544H20.637C20.7548 48.4544 20.8137 48.5126 20.8137 48.6289V49.5013Z" fill="#555770"/>
<path d="M2.38624 49.6756C2.04956 49.6756 1.73392 49.6133 1.43932 49.4887C1.14472 49.3641 0.892211 49.1979 0.681784 48.9902C0.471357 48.7742 0.303015 48.5249 0.176759 48.2425C0.0589196 47.9517 0 47.6443 0 47.3203V45.1644H1.0353V47.258C1.0353 47.5986 1.14893 47.8852 1.37619 48.1179C1.61187 48.3422 1.90647 48.4543 2.25999 48.4543H10.6939C10.8875 48.4543 11.0474 48.3879 11.1737 48.2549C11.3083 48.122 11.3757 47.96 11.3757 47.7689V46.909C11.3757 46.7013 11.3041 46.5269 11.161 46.3856C11.018 46.2361 10.8412 46.1613 10.6308 46.1613H4.64623L3.88869 45.4634L7.33549 41.4756L8.09302 42.161L5.6184 45.0397H10.5424C10.8033 45.0397 11.0474 45.0896 11.2747 45.1893C11.5019 45.2807 11.6997 45.4136 11.8681 45.5881C12.0364 45.7542 12.1669 45.9495 12.2595 46.1738C12.3605 46.3981 12.411 46.6349 12.411 46.8841V47.8188C12.411 48.0763 12.3605 48.3172 12.2595 48.5416C12.1585 48.7659 12.0196 48.9653 11.8428 49.1397C11.6745 49.3059 11.4767 49.4388 11.2494 49.5385C11.0306 49.6299 10.7949 49.6756 10.5424 49.6756H2.38624Z" fill="#555770"/>
<g clip-path="url(#clip0_1532_1827)">
<path d="M112.411 0.0918646L95.3073 12.5526C93.8528 13.6153 93 15.2808 93 17.0485L93.0157 40.8307C93.0157 40.9737 93.0837 41.1117 93.1988 41.1985L101.633 47.7278C101.947 47.973 102.412 47.7533 102.412 47.3599L102.365 20.8291C102.365 18.9439 103.286 17.166 104.85 16.0574L122.032 3.89804C122.346 3.67324 122.273 3.19811 121.907 3.07549L112.855 0.0254481C112.704 -0.0256414 112.536 -9.66337e-05 112.411 0.0918646Z" fill="#A1E8ED"/>
<path d="M107.948 16.9872C106.222 18.1776 105.186 20.1139 105.17 22.1779L104.992 45.8936C104.992 47.6102 106.415 48.9999 108.173 48.9999H131.267C131.445 48.9999 131.607 48.9028 131.691 48.7495L136.238 40.3096C136.41 39.9928 136.17 39.6147 135.803 39.6198L117.559 40.0081C116.021 40.0388 114.75 38.8382 114.734 37.3361L114.63 26.3161C114.614 24.6251 115.488 23.0464 116.947 22.1319L123.895 17.7842C125.381 16.9003 127.26 16.9565 128.683 17.9272L134.746 22.0604C135.788 22.7705 136.415 23.9302 136.426 25.1768L136.614 48.3255C136.614 48.7444 137.127 48.9539 137.43 48.6627L145.77 40.657C145.859 40.5701 145.912 40.4475 145.912 40.3249L145.995 21.6261C146.006 19.6847 145.027 17.8608 143.384 16.7624L129.007 7.16265C127.055 5.88541 124.502 5.90074 122.566 7.19841L107.943 16.9821L107.948 16.9872Z" fill="#05BAC6"/>
</g>
<g clip-path="url(#clip1_1532_1827)">
<path d="M82.9213 30.5769C82.883 22.5764 82.8638 9.35084 82.8383 9H80.0245C80.0245 14.319 80.0181 23.2154 80.0117 30.5769H82.9213Z" fill="#1C1C28"/>
<path d="M54.9486 28.2963C54.9103 21.3045 54.8912 9.74546 54.8656 9.43848H52.0518C52.0518 14.0872 52.0454 21.8621 52.0391 28.2963H54.9486Z" fill="#1C1C28"/>
<path d="M37.7521 28.7476C36.3484 28.7601 35.4041 28.7601 35.3275 28.7601C34.0386 28.6724 33.3112 28.1022 32.9922 26.8618C32.8454 26.2916 32.8008 25.6902 32.7944 25.095C32.7689 23.2468 32.788 21.3986 32.788 19.5066H29.9168C29.8976 19.9702 29.8849 24.4184 29.8594 26.2415C29.8338 27.9331 28.9916 28.8102 27.5113 28.7726C26.0884 28.735 25.3036 27.8642 25.2845 26.2415C25.2654 24.3808 25.2271 19.8762 25.2079 19.5003H22.4132C22.3941 19.9577 22.3622 20.3586 22.3622 20.7596C22.3558 22.5076 22.4515 24.268 22.3112 26.0035C22.2473 26.7803 21.9411 27.7953 21.3732 28.2276C20.1162 29.1798 18.5402 28.9856 17.1493 28.428C15.9434 27.9456 15.937 26.7553 15.9497 25.6463C15.9689 23.6102 15.9497 21.5741 15.9497 19.5129H12.9892V32.895C10.9474 32.895 9.05874 32.9263 7.1701 32.8888C5.06451 32.8449 4.13933 31.9615 4.07553 29.8627C4.0181 27.9644 4.05638 26.0661 4.07553 24.1678C4.09467 22.6329 4.78377 21.4676 6.13007 20.6719C7.32961 19.9639 8.52277 19.2435 9.71594 18.5167C10.8262 17.8463 11.93 17.1635 13.0593 16.4743C12.651 15.7476 12.3256 15.1649 11.9236 14.4507C9.02684 16.2738 6.14283 18.0218 3.33538 19.8825C1.9508 20.7972 1.09581 22.3071 1.05114 23.9485C0.993718 26.1037 0.968196 28.2651 1.0639 30.4203C1.16599 32.7447 2.49953 34.2357 4.79015 34.7369C5.52391 34.8998 6.28958 34.975 7.04248 34.9813C9.58195 35.0126 12.1214 34.9938 14.6609 34.9875C15.0628 34.9875 15.4648 34.9875 16.0199 34.9875V30.4516C19.4271 30.9904 21.3222 31.0218 23.3512 29.5745C25.6227 31.2473 28.8895 31.2536 30.9887 29.4994C31.9267 30.5769 33.1453 30.7461 34.4214 30.7461C35.5317 30.7461 36.6483 30.7461 37.7585 30.7461V28.735L37.7521 28.7476Z" fill="#1C1C28"/>
<path d="M76.2527 21.7243C76.2272 20.985 76.1251 20.2394 75.921 19.519C75.2893 17.2823 73.5219 16.0043 70.7974 15.9604C68.2771 15.9165 65.744 15.9855 63.2236 16.092C61.3478 16.1672 59.7016 16.8626 58.6743 18.2096C56.4985 21.0727 54.4568 24.0173 52.3257 26.9744C52.9191 27.2438 53.4423 27.4756 53.991 27.7199H50.2966V9.43848H47.3297C47.3297 12.0698 47.3297 24.6062 47.3297 27.1623C47.3297 28.6659 47.3297 28.6722 45.7601 28.6722C43.6864 28.6722 40.5344 28.691 37.7461 28.7161V30.7522C38.0651 30.7522 38.3778 30.7522 38.6968 30.7522C38.6968 30.7522 74.5491 30.5705 76.4378 30.5329C76.425 29.9879 76.3357 24.2115 76.2527 21.718V21.7243ZM65.5015 27.7763V27.7262H54.9417C55.6499 26.7175 56.3518 25.7214 57.0409 24.7252C57.864 23.5411 58.6807 22.3508 59.491 21.1604C60.3971 19.8197 61.7497 19.118 63.5427 19.0616C65.7631 18.999 67.9835 18.9175 70.204 18.93C72.6605 18.9426 73.7133 19.8322 73.8026 21.8997C73.8856 23.7541 73.8856 25.6086 73.9238 27.6134C71.0973 27.6698 68.2962 27.7199 65.5015 27.7763Z" fill="#1C1C28"/>
</g>
<defs>
<clipPath id="clip0_1532_1827">
<rect width="53" height="49" fill="white" transform="translate(93)"/>
</clipPath>
<clipPath id="clip1_1532_1827">
<rect width="84" height="26" fill="white" transform="translate(1 9)"/>
</clipPath>
</defs>
</svg>
