<svg width="146" height="54" viewBox="0 0 146 54" fill="none" xmlns="http://www.w3.org/2000/svg">
<path d="M81.5349 49.6756C81.3329 49.6756 81.1435 49.6383 80.9667 49.5635C80.79 49.4804 80.6343 49.3766 80.4996 49.2519C80.3649 49.119 80.2597 48.9653 80.1839 48.7908C80.1082 48.6081 80.0703 48.417 80.0703 48.2176V46.7969H80.9541V48.0057C80.9541 48.1303 80.992 48.2384 81.0677 48.3297C81.1435 48.4128 81.2529 48.4544 81.396 48.4544H83.4035C83.6223 48.4544 83.8075 48.4087 83.959 48.3173C84.1105 48.2176 84.2199 48.0971 84.2873 47.9559C84.363 47.8063 84.4009 47.6485 84.4009 47.4823C84.4009 47.3162 84.3588 47.1625 84.2746 47.0212L82.7848 44.3917L83.656 43.8185L85.1837 46.4978C85.3941 46.8634 85.4951 47.2372 85.4867 47.6194C85.4783 47.9933 85.3857 48.3339 85.2089 48.6413C85.0322 48.9404 84.7839 49.1896 84.464 49.389C84.1526 49.5801 83.7907 49.6756 83.3782 49.6756H81.5349Z" fill="#555770"/>
<path d="M76.4696 48.4546C76.6884 48.4546 76.8778 48.3756 77.0378 48.2178C77.1977 48.0599 77.2776 47.873 77.2776 47.657V45.2643H78.3129V47.657C78.3129 47.9312 78.2582 48.1929 78.1488 48.4421C78.0478 48.683 77.9047 48.8949 77.7195 49.0777C77.5344 49.2604 77.3155 49.4058 77.063 49.5138C76.8189 49.6218 76.5538 49.6758 76.2676 49.6758H73.9697C73.9192 49.6758 73.8771 49.6592 73.8435 49.626C73.8098 49.5845 73.793 49.5429 73.793 49.5014V48.6415C73.793 48.5916 73.8098 48.5501 73.8435 48.5169C73.8771 48.4753 73.9192 48.4546 73.9697 48.4546H76.4696ZM74.1465 52.3552H75.3459V51.1713H74.1465V52.3552ZM76.0025 52.3552H77.2019V51.1713H76.0025V52.3552ZM75.0808 54.0002H76.2802V52.8163H75.0808V54.0002Z" fill="#555770"/>
<path d="M71.8486 48.4543H73.9697C74.0876 48.4543 74.1465 48.5124 74.1465 48.6288V49.5011C74.1465 49.6174 74.0876 49.6756 73.9697 49.6756H71.8486C71.7308 49.6756 71.6719 49.6174 71.6719 49.5011V48.6288C71.6719 48.5124 71.7308 48.4543 71.8486 48.4543Z" fill="#555770"/>
<path d="M69.7314 48.4543H71.8526C71.9704 48.4543 72.0293 48.5124 72.0293 48.6288V49.5011C72.0293 49.6174 71.9704 49.6756 71.8526 49.6756H69.7314C69.6136 49.6756 69.5547 49.6174 69.5547 49.5011V48.6288C69.5547 48.5124 69.6136 48.4543 69.7314 48.4543Z" fill="#555770"/>
<path d="M69.9083 49.5013C69.9083 49.6176 69.8494 49.6757 69.7315 49.6757H69.2896C69.0119 49.6757 68.7509 49.6259 68.5068 49.5262C68.2627 49.4182 68.0481 49.2728 67.8629 49.09C67.6778 48.9072 67.5305 48.6954 67.421 48.4544C67.32 48.2052 67.2695 47.9435 67.2695 47.6693V41.3511H68.3048V47.6569C68.3048 47.8729 68.3848 48.0598 68.5447 48.2177C68.7046 48.3755 68.894 48.4544 69.1129 48.4544H69.7315C69.782 48.4544 69.8241 48.4752 69.8578 48.5167C69.8915 48.55 69.9083 48.5915 69.9083 48.6414V49.5013Z" fill="#555770"/>
<path d="M61.9962 52.8038L61.668 51.7943L63.2967 51.2709C63.6502 51.1546 63.928 50.9511 64.13 50.6603C64.3404 50.3695 64.4456 50.0455 64.4456 49.6882V45.6132H65.4809V49.5886C65.4809 49.8959 65.4346 50.1867 65.342 50.4609C65.2494 50.7434 65.119 51.0009 64.9506 51.2335C64.7823 51.4745 64.5803 51.6822 64.3446 51.8566C64.1089 52.0394 63.8438 52.1807 63.5492 52.2804L61.9962 52.8038Z" fill="#555770"/>
<path d="M60.8527 48.4547C61.0715 48.4547 61.2609 48.3758 61.4208 48.2179C61.5808 48.0601 61.6607 47.8731 61.6607 47.6571V45.2644H62.696V47.6571C62.696 47.9313 62.6413 48.193 62.5319 48.4422C62.4309 48.6832 62.2878 48.895 62.1026 49.0778C61.9174 49.2606 61.6986 49.406 61.4461 49.514C61.202 49.622 60.9369 49.676 60.6507 49.676H59.1104C59.0598 49.676 59.0178 49.6594 58.9841 49.6261C58.9504 49.5846 58.9336 49.5431 58.9336 49.5015V48.6416C58.9336 48.5918 58.9504 48.5503 58.9841 48.517C59.0178 48.4755 59.0598 48.4547 59.1104 48.4547H60.8527ZM59.6406 43.9061H60.8401V42.7222H59.6406V43.9061ZM61.4966 43.9061H62.696V42.7222H61.4966V43.9061Z" fill="#555770"/>
<path d="M52.0361 49.6759C51.9183 49.6759 51.8594 49.6178 51.8594 49.5014V48.6291C51.8594 48.5876 51.8762 48.5502 51.9099 48.5169C51.9435 48.4754 51.9814 48.4546 52.0235 48.4546H52.4402C52.6506 48.4546 52.8358 48.3882 52.9957 48.2552C53.164 48.1223 53.2692 47.952 53.3113 47.7443L53.5638 46.4607C53.648 46.0536 53.85 45.7171 54.1699 45.4513C54.4981 45.1854 54.8727 45.0525 55.2935 45.0525H56.0006C56.2615 45.0525 56.5056 45.1023 56.7329 45.202C56.9601 45.2934 57.1579 45.4222 57.3263 45.5884C57.4946 45.7545 57.6251 45.9498 57.7177 46.1741C57.8187 46.3984 57.8692 46.6393 57.8692 46.8969V47.6571C57.8692 47.8731 57.9491 48.06 58.1091 48.2178C58.269 48.3757 58.4626 48.4546 58.6898 48.4546H59.1191C59.2369 48.4546 59.2959 48.5128 59.2959 48.6291V49.5014C59.2959 49.5513 59.2748 49.5928 59.2327 49.6261C59.1991 49.6593 59.1612 49.6759 59.1191 49.6759H58.8666C58.6225 49.6759 58.3826 49.6302 58.1469 49.5388C57.9197 49.4474 57.7219 49.2937 57.5535 49.0777C57.4609 49.3187 57.3347 49.4807 57.1748 49.5638C57.0148 49.6385 56.8255 49.6759 56.6066 49.6759H55.0789C54.818 49.6759 54.5739 49.6178 54.3466 49.5014C54.1194 49.3851 53.93 49.1816 53.7785 48.8908C53.6101 49.1816 53.3997 49.3851 53.1472 49.5014C52.9031 49.6178 52.6464 49.6759 52.377 49.6759H52.0361ZM54.9653 48.4546H56.8339V46.8844C56.8339 46.6933 56.7665 46.5355 56.6319 46.4109C56.4972 46.2779 56.3331 46.2115 56.1395 46.2115H55.243C55.0747 46.2115 54.9274 46.2613 54.8011 46.361C54.6833 46.4607 54.6076 46.5936 54.5739 46.7598L54.3719 47.7568C54.3382 47.9395 54.3803 48.1015 54.4981 48.2428C54.616 48.384 54.7717 48.4546 54.9653 48.4546Z" fill="#555770"/>
<path d="M52.2169 49.5013C52.2169 49.6176 52.158 49.6757 52.0401 49.6757H51.5982C51.3205 49.6757 51.0595 49.6259 50.8154 49.5262C50.5713 49.4182 50.3567 49.2728 50.1715 49.09C49.9864 48.9072 49.8391 48.6954 49.7296 48.4544C49.6286 48.2052 49.5781 47.9435 49.5781 47.6693V41.3511H50.6134V47.6569C50.6134 47.8729 50.6934 48.0598 50.8533 48.2177C51.0132 48.3755 51.2026 48.4544 51.4215 48.4544H52.0401C52.0906 48.4544 52.1327 48.4752 52.1664 48.5167C52.2 48.55 52.2169 48.5915 52.2169 48.6414V49.5013Z" fill="#555770"/>
<path d="M43.3878 51.8563C43.0259 51.8563 42.685 51.7857 42.3652 51.6444C42.0453 51.5115 41.7676 51.3287 41.5319 51.0961C41.2962 50.8635 41.1068 50.5893 40.9637 50.2736C40.8291 49.9579 40.7617 49.6214 40.7617 49.2642V45.8246H41.797V49.1022C41.797 49.3099 41.8391 49.5051 41.9233 49.6879C42.0074 49.879 42.1169 50.0451 42.2515 50.1864C42.3946 50.3276 42.563 50.4356 42.7566 50.5104C42.9502 50.5935 43.1522 50.635 43.3626 50.635H45.5847C45.7615 50.635 45.9298 50.6018 46.0897 50.5353C46.2497 50.4688 46.3885 50.3774 46.5064 50.2611C46.6242 50.1448 46.7168 50.0077 46.7841 49.8499C46.8515 49.692 46.8851 49.5259 46.8851 49.3514V45.6128H47.9204V49.5383C47.9204 49.8623 47.8573 50.1614 47.7311 50.4356C47.6132 50.7181 47.4449 50.9632 47.226 51.1709C47.0156 51.3869 46.7673 51.553 46.4811 51.6693C46.2034 51.794 45.9003 51.8563 45.5721 51.8563H43.3878ZM43.7414 44.4289H44.9408V45.6128H43.7414V44.4289Z" fill="#555770"/>
<path d="M37.5939 49.6757H36.5586V41.3511H37.5939V49.6757Z" fill="#555770"/>
<path d="M32.0434 48.4546H33.912V46.8844C33.912 46.6933 33.8447 46.5355 33.71 46.4109C33.5753 46.2779 33.4112 46.2115 33.2176 46.2115H32.3212C32.1528 46.2115 32.0055 46.2613 31.8793 46.361C31.7614 46.4607 31.6857 46.5936 31.652 46.7598L31.45 47.7568C31.4163 47.9395 31.4584 48.1015 31.5763 48.2428C31.6941 48.384 31.8498 48.4546 32.0434 48.4546ZM30.3894 47.7443L30.642 46.4607C30.7261 46.0536 30.9281 45.7171 31.248 45.4513C31.5763 45.1854 31.9508 45.0525 32.3717 45.0525H33.0787C33.3396 45.0525 33.5837 45.1023 33.811 45.202C34.0383 45.2934 34.2361 45.4222 34.4044 45.5884C34.5727 45.7545 34.7032 45.9498 34.7958 46.1741C34.8968 46.3984 34.9473 46.6393 34.9473 46.8969V48.4172C34.9473 48.7828 34.8295 49.086 34.5938 49.327C34.3581 49.5596 34.0551 49.6759 33.6847 49.6759H32.157C31.8961 49.6759 31.652 49.6178 31.4247 49.5014C31.1975 49.3851 31.0081 49.1816 30.8566 48.8908C30.6883 49.1816 30.4778 49.3851 30.2253 49.5014C29.9812 49.6178 29.7245 49.6759 29.4552 49.6759H29.1143C28.9964 49.6759 28.9375 49.6178 28.9375 49.5014V48.6291C28.9375 48.5876 28.9543 48.5502 28.988 48.5169C29.0217 48.4754 29.0638 48.4546 29.1143 48.4546H29.5183C29.7287 48.4546 29.9139 48.3882 30.0738 48.2552C30.2421 48.1223 30.3474 47.952 30.3894 47.7443Z" fill="#555770"/>
<path d="M26.9932 48.4543H29.1143C29.2321 48.4543 29.291 48.5124 29.291 48.6288V49.5011C29.291 49.6174 29.2321 49.6756 29.1143 49.6756H26.9932C26.8753 49.6756 26.8164 49.6174 26.8164 49.5011V48.6288C26.8164 48.5124 26.8753 48.4543 26.9932 48.4543Z" fill="#555770"/>
<path d="M24.8721 48.4543H26.9932C27.111 48.4543 27.1699 48.5124 27.1699 48.6288V49.5011C27.1699 49.6174 27.111 49.6756 26.9932 49.6756H24.8721C24.7542 49.6756 24.6953 49.6174 24.6953 49.5011V48.6288C24.6953 48.5124 24.7542 48.4543 24.8721 48.4543Z" fill="#555770"/>
<path d="M22.7549 48.4543H24.876C24.9938 48.4543 25.0527 48.5124 25.0527 48.6288V49.5011C25.0527 49.6174 24.9938 49.6756 24.876 49.6756H22.7549C22.637 49.6756 22.5781 49.6174 22.5781 49.5011V48.6288C22.5781 48.5124 22.637 48.4543 22.7549 48.4543Z" fill="#555770"/>
<path d="M20.6299 48.4543H22.751C22.8688 48.4543 22.9277 48.5124 22.9277 48.6288V49.5011C22.9277 49.6174 22.8688 49.6756 22.751 49.6756H20.6299C20.512 49.6756 20.4531 49.6174 20.4531 49.5011V48.6288C20.4531 48.5124 20.512 48.4543 20.6299 48.4543Z" fill="#555770"/>
<path d="M20.8137 49.5013C20.8137 49.5428 20.7969 49.5843 20.7632 49.6259C20.7296 49.6591 20.6875 49.6757 20.637 49.6757H20.1824C19.8626 49.6757 19.568 49.6093 19.2986 49.4763C19.0377 49.3351 18.8147 49.1523 18.6295 48.928C18.3096 49.2686 17.8972 49.4722 17.3922 49.5386L13.9201 50.0247L13.7812 48.9405L15.1448 48.766L14.5388 42.2982L15.5741 42.1611L16.1549 48.6414L17.2533 48.4918C17.5311 48.4586 17.7499 48.3506 17.9098 48.1678C18.0782 47.985 18.1623 47.7441 18.1623 47.445V41.3511H19.1976V47.6693C19.1976 47.9352 19.286 48.1346 19.4628 48.2675C19.6395 48.3921 19.8415 48.4544 20.0688 48.4544H20.637C20.7548 48.4544 20.8137 48.5126 20.8137 48.6289V49.5013Z" fill="#555770"/>
<path d="M2.38624 49.6757C2.04956 49.6757 1.73392 49.6134 1.43932 49.4887C1.14472 49.3641 0.892211 49.198 0.681784 48.9903C0.471357 48.7743 0.303015 48.525 0.176759 48.2425C0.0589196 47.9518 0 47.6444 0 47.3203V45.1644H1.0353V47.258C1.0353 47.5987 1.14893 47.8853 1.37619 48.1179C1.61187 48.3422 1.90647 48.4544 2.25999 48.4544H10.6939C10.8875 48.4544 11.0474 48.3879 11.1737 48.255C11.3083 48.1221 11.3757 47.9601 11.3757 47.769V46.9091C11.3757 46.7014 11.3041 46.5269 11.161 46.3857C11.018 46.2361 10.8412 46.1614 10.6308 46.1614H4.64623L3.88869 45.4635L7.33549 41.4756L8.09302 42.1611L5.6184 45.0398H10.5424C10.8033 45.0398 11.0474 45.0896 11.2747 45.1893C11.5019 45.2807 11.6997 45.4137 11.8681 45.5881C12.0364 45.7543 12.1669 45.9495 12.2595 46.1738C12.3605 46.3982 12.411 46.6349 12.411 46.8842V47.8188C12.411 48.0764 12.3605 48.3173 12.2595 48.5416C12.1585 48.7659 12.0196 48.9653 11.8428 49.1398C11.6745 49.306 11.4767 49.4389 11.2494 49.5386C11.0306 49.63 10.7949 49.6757 10.5424 49.6757H2.38624Z" fill="#555770"/>
<g clip-path="url(#clip0_2129_4440)">
<path d="M112.411 0.0918646L95.3073 12.5526C93.8528 13.6153 93 15.2808 93 17.0485L93.0157 40.8307C93.0157 40.9737 93.0837 41.1117 93.1988 41.1985L101.633 47.7278C101.947 47.973 102.412 47.7533 102.412 47.3599L102.365 20.8291C102.365 18.9439 103.286 17.166 104.85 16.0574L122.032 3.89804C122.346 3.67324 122.273 3.19811 121.907 3.07549L112.855 0.0254481C112.704 -0.0256414 112.536 -9.66337e-05 112.411 0.0918646Z" fill="#A1E8ED"/>
<path d="M107.948 16.9873C106.222 18.1777 105.186 20.114 105.17 22.178L104.992 45.8938C104.992 47.6104 106.415 49 108.173 49H131.267C131.445 49 131.607 48.9029 131.691 48.7497L136.238 40.3097C136.41 39.9929 136.17 39.6149 135.803 39.62L117.559 40.0082C116.021 40.0389 114.75 38.8383 114.734 37.3363L114.63 26.3162C114.614 24.6252 115.488 23.0465 116.947 22.132L123.895 17.7843C125.381 16.9004 127.26 16.9566 128.683 17.9273L134.746 22.0605C135.788 22.7706 136.415 23.9304 136.426 25.1769L136.614 48.3256C136.614 48.7446 137.127 48.954 137.43 48.6628L145.77 40.6571C145.859 40.5702 145.912 40.4476 145.912 40.325L145.995 21.6262C146.006 19.6848 145.027 17.8609 143.384 16.7625L129.007 7.16277C127.055 5.88553 124.502 5.90086 122.566 7.19853L107.943 16.9822L107.948 16.9873Z" fill="#05BAC6"/>
</g>
<g clip-path="url(#clip1_2129_4440)">
<path d="M82.9213 30.5769C82.883 22.5764 82.8638 9.35084 82.8383 9H80.0245C80.0245 14.319 80.0181 23.2154 80.0117 30.5769H82.9213Z" fill="#C7C9D9"/>
<path d="M54.9486 28.2964C54.9103 21.3046 54.8912 9.74553 54.8656 9.43854H52.0518C52.0518 14.0872 52.0454 21.8622 52.0391 28.2964H54.9486Z" fill="#C7C9D9"/>
<path d="M37.7521 28.7474C36.3484 28.76 35.4041 28.76 35.3275 28.76C34.0386 28.6722 33.3112 28.1021 32.9922 26.8616C32.8454 26.2915 32.8008 25.6901 32.7944 25.0949C32.7689 23.2467 32.788 21.3985 32.788 19.5065H29.9168C29.8976 19.9701 29.8849 24.4183 29.8594 26.2414C29.8338 27.933 28.9916 28.8101 27.5113 28.7725C26.0884 28.7349 25.3036 27.8641 25.2845 26.2414C25.2654 24.3807 25.2271 19.8761 25.2079 19.5002H22.4132C22.3941 19.9575 22.3622 20.3585 22.3622 20.7595C22.3558 22.5074 22.4515 24.2679 22.3112 26.0033C22.2473 26.7802 21.9411 27.7951 21.3732 28.2274C20.1162 29.1797 18.5402 28.9855 17.1493 28.4279C15.9434 27.9455 15.937 26.7551 15.9497 25.6462C15.9689 23.6101 15.9497 21.5739 15.9497 19.5127H12.9892V32.8949C10.9474 32.8949 9.05874 32.9262 7.1701 32.8886C5.06451 32.8448 4.13933 31.9614 4.07553 29.8626C4.0181 27.9643 4.05638 26.066 4.07553 24.1677C4.09467 22.6327 4.78377 21.4674 6.13007 20.6718C7.32961 19.9638 8.52277 19.2433 9.71594 18.5166C10.8262 17.8462 11.93 17.1633 13.0593 16.4742C12.651 15.7474 12.3256 15.1648 11.9236 14.4506C9.02684 16.2737 6.14283 18.0216 3.33538 19.8824C1.9508 20.7971 1.09581 22.3069 1.05114 23.9484C0.993718 26.1036 0.968196 28.265 1.0639 30.4202C1.16599 32.7445 2.49953 34.2356 4.79015 34.7368C5.52391 34.8997 6.28958 34.9749 7.04248 34.9812C9.58195 35.0125 12.1214 34.9937 14.6609 34.9874C15.0628 34.9874 15.4648 34.9874 16.0199 34.9874V30.4515C19.4271 30.9903 21.3222 31.0216 23.3512 29.5744C25.6227 31.2472 28.8895 31.2535 30.9887 29.4992C31.9267 30.5768 33.1453 30.746 34.4214 30.746C35.5317 30.746 36.6483 30.746 37.7585 30.746V28.7349L37.7521 28.7474Z" fill="#C7C9D9"/>
<path d="M76.2527 21.7243C76.2272 20.985 76.1251 20.2395 75.921 19.519C75.2893 17.2824 73.5219 16.0043 70.7974 15.9605C68.2771 15.9166 65.744 15.9855 63.2236 16.092C61.3478 16.1672 59.7016 16.8626 58.6743 18.2096C56.4985 21.0728 54.4568 24.0173 52.3257 26.9744C52.9191 27.2438 53.4423 27.4756 53.991 27.72H50.2966V9.43854H47.3297C47.3297 12.0699 47.3297 24.6062 47.3297 27.1624C47.3297 28.666 47.3297 28.6723 45.7601 28.6723C43.6864 28.6723 40.5344 28.6911 37.7461 28.7161V30.7523C38.0651 30.7523 38.3778 30.7523 38.6968 30.7523C38.6968 30.7523 74.5491 30.5706 76.4378 30.533C76.425 29.9879 76.3357 24.2115 76.2527 21.7181V21.7243ZM65.5015 27.7764V27.7262H54.9417C55.6499 26.7176 56.3518 25.7214 57.0409 24.7253C57.864 23.5412 58.6807 22.3508 59.491 21.1605C60.3971 19.8197 61.7497 19.1181 63.5427 19.0617C65.7631 18.999 67.9835 18.9176 70.204 18.9301C72.6605 18.9426 73.7133 19.8323 73.8026 21.8997C73.8856 23.7542 73.8856 25.6087 73.9238 27.6135C71.0973 27.6699 68.2962 27.72 65.5015 27.7764Z" fill="#C7C9D9"/>
</g>
<defs>
<clipPath id="clip0_2129_4440">
<rect width="53" height="49" fill="white" transform="translate(93)"/>
</clipPath>
<clipPath id="clip1_2129_4440">
<rect width="84" height="26" fill="white" transform="translate(1 9)"/>
</clipPath>
</defs>
</svg>
