<svg width="675" height="594" viewBox="0 0 675 594" fill="none" xmlns="http://www.w3.org/2000/svg">
<g opacity="0.7">
<path d="M276.904 318.04C280.988 321.875 285.769 325.366 291.147 328.472C303.752 335.747 319.629 340.895 337.405 343.344C362.767 346.84 388.973 344.422 411.186 336.541C417.711 334.229 423.745 331.486 429.119 328.389C429.779 328.008 429.779 327.394 429.119 327.013C428.463 326.632 427.393 326.632 426.737 327.013C421.552 329.999 415.724 332.651 409.424 334.885C387.977 342.496 362.68 344.826 338.19 341.45C313.705 338.078 292.96 329.398 279.776 317.021C256.815 295.456 262.422 267.922 293.414 250.062C294.075 249.682 294.075 249.067 293.414 248.686C292.758 248.305 291.688 248.305 291.032 248.686C275.757 257.49 265.873 269.183 263.188 281.615C260.426 294.423 265.171 307.021 276.904 318.04ZM243.81 341.33C247.527 344.055 251.478 346.624 255.663 349.042C278.996 362.511 309.272 371.03 342.54 373.319C381.773 376.021 420.487 369.745 451.539 355.643C456.141 353.556 460.56 351.294 464.681 348.918C465.342 348.537 465.342 347.923 464.681 347.542C464.025 347.161 462.955 347.161 462.299 347.542C458.27 349.858 453.948 352.07 449.451 354.111C419.102 367.892 381.273 374.025 342.935 371.383C304.592 368.74 270.337 357.643 246.453 340.124C201.154 306.892 206.046 259.343 257.833 229.524C258.494 229.144 258.494 228.529 257.833 228.148C257.177 227.767 256.108 227.767 255.452 228.148C202.453 258.664 197.447 307.319 243.801 341.326L243.81 341.33ZM208.303 366.268C211.029 368.039 213.819 369.75 216.682 371.406C291.922 414.835 414.132 417.427 494.75 376.135C497.765 374.59 500.729 372.979 503.556 371.351C504.217 370.97 504.217 370.355 503.556 369.975C502.9 369.594 501.831 369.594 501.174 369.975C498.394 371.576 495.48 373.158 492.516 374.681C410.218 416.831 283.879 412.482 210.827 364.979C139.758 318.751 144.269 248.87 221.097 205.89C221.767 205.514 221.78 204.899 221.133 204.513L221.115 204.504C220.463 204.128 219.413 204.124 218.747 204.495C181.175 225.515 159.356 253.746 157.319 283.996C155.272 314.338 173.379 343.555 208.303 366.272V366.268ZM167.877 394.297C169.378 395.206 170.887 396.1 172.42 396.981C220.867 424.946 285.003 440.814 353.741 441.764C424.649 442.741 491.974 427.722 543.312 399.472C544.845 398.628 546.359 397.775 547.846 396.917C548.506 396.536 548.506 395.921 547.846 395.54C547.189 395.16 546.12 395.16 545.464 395.54C543.991 396.389 542.5 397.229 540.986 398.064C490.299 425.955 423.828 440.787 353.819 439.819C283.81 438.855 218.614 422.221 170.318 392.953C121.995 363.699 96.3035 325.329 97.9737 284.923C99.644 244.512 128.479 206.899 179.165 179.007C179.84 178.636 179.863 178.021 179.225 177.631C178.56 177.264 177.513 177.227 176.844 177.599C125.506 205.848 96.2989 243.947 94.6057 284.877C92.9124 325.806 118.935 364.667 167.882 394.297H167.877ZM607.613 430.038C606.957 429.658 605.888 429.658 605.227 430.038C470.05 508.062 250.097 508.062 114.92 430.038C-20.2576 352.015 -20.2622 225.056 114.92 147.032C115.576 146.652 115.58 146.037 114.92 145.656C114.259 145.275 113.194 145.275 112.534 145.656C46.4156 183.819 10 234.561 10 288.538C10 342.509 46.4156 393.251 112.534 431.419C178.651 469.582 266.566 490.602 360.073 490.602C453.581 490.602 541.49 469.582 607.613 431.419C608.269 431.038 608.269 430.424 607.613 430.043V430.038Z" fill="url(#paint0_linear_1957_2178)"/>
<path d="M502.227 232.212L540.367 210.197V108.011L502.227 130.026V232.212Z" fill="url(#paint1_linear_1957_2178)"/>
<path d="M502.227 232.212L464.086 210.197V108.011L502.227 130.026V232.212Z" fill="url(#paint2_linear_1957_2178)"/>
<path d="M502.227 130.026L464.086 108.011L502.227 86L540.368 108.011L502.227 130.026Z" fill="#F1F3F9"/>
<path d="M140.129 283.597L178.27 261.582V159.396L140.129 181.411V283.597Z" fill="url(#paint3_linear_1957_2178)"/>
<path d="M140.129 283.597L101.988 261.582V159.396L140.129 181.411V283.597Z" fill="url(#paint4_linear_1957_2178)"/>
<path d="M140.129 181.411L101.988 159.396L140.129 137.385L178.27 159.396L140.129 181.411Z" fill="#F1F3F9"/>
<path d="M365.374 420.482L324.688 443.968V494.615H365.374V420.482Z" fill="url(#paint5_linear_1957_2178)"/>
<path d="M324.687 443.969L284 420.483L324.687 397L365.374 420.483L324.687 443.969Z" fill="#F1F3F9"/>
<path d="M324.687 443.968L284 420.482V494.615H324.687V443.968Z" fill="url(#paint6_linear_1957_2178)"/>
<g clip-path="url(#clip0_1957_2178)">
<path style="mix-blend-mode:multiply" d="M648.002 434.343H534.879V490.992H648.002V434.343Z" fill="url(#paint7_linear_1957_2178)"/>
<path d="M534.877 491L488 463.864V366.468L534.877 393.604V491Z" fill="#EAEEF9"/>
<path d="M505.152 398.613L497.992 394.466V382.102L505.152 386.249V398.613Z" fill="white"/>
<path d="M505.152 386.249L497.992 382.102V384.01L505.152 388.157V386.249Z" fill="#D0D4F6"/>
<path d="M517.727 405.891L524.886 410.038V397.674L517.727 393.527V405.891Z" fill="white"/>
<path d="M517.727 393.527L524.886 397.674V399.582L517.727 395.435V393.527Z" fill="#D0D4F6"/>
<path d="M505.152 429.319L497.992 425.172V412.808L505.152 416.955V429.319Z" fill="white"/>
<path d="M505.152 416.955L497.992 412.808V414.716L505.152 418.863V416.955Z" fill="#D0D4F6"/>
<path d="M517.727 436.597L524.886 440.744V428.38L517.727 424.233V436.597Z" fill="white"/>
<path d="M517.727 424.233L524.886 428.38V430.288L517.727 426.141V424.233Z" fill="#D0D4F6"/>
<path d="M505.152 458.14L497.992 453.993V441.629L505.152 445.776V458.14Z" fill="white"/>
<path d="M505.152 445.776L497.992 441.629V443.537L505.152 447.684V445.776Z" fill="#D0D4F6"/>
<path d="M517.727 465.418L524.886 469.565V457.201L517.727 453.054V465.418Z" fill="white"/>
<path d="M517.727 453.054L524.886 457.201V459.109L517.727 454.962V453.054Z" fill="#D0D4F6"/>
<path d="M581.756 463.864L534.879 491V393.604L581.756 366.468V463.864Z" fill="#DCE1F4"/>
<path d="M552.034 405.891L544.867 410.038V397.674L552.034 393.527V405.891Z" fill="#EAEEF9"/>
<path d="M552.034 393.527L544.867 397.674V399.582L552.034 395.435V393.527Z" fill="#BDC1E4"/>
<path d="M564.605 398.613L571.765 394.466V382.102L564.605 386.249V398.613Z" fill="#EAEEF9"/>
<path d="M564.605 386.249L571.765 382.102V384.01L564.605 388.157V386.249Z" fill="#BDC1E4"/>
<path d="M552.034 436.597L544.867 440.744V428.38L552.034 424.233V436.597Z" fill="#EAEEF9"/>
<path d="M552.034 424.233L544.867 428.38V430.288L552.034 426.141V424.233Z" fill="#BDC1E4"/>
<path d="M564.605 429.319L571.765 425.172V412.808L564.605 416.955V429.319Z" fill="#EAEEF9"/>
<path d="M564.605 416.955L571.765 412.808V414.716L564.605 418.863V416.955Z" fill="#BDC1E4"/>
<path d="M552.034 465.418L544.867 469.565V457.201L552.034 453.054V465.418Z" fill="#EAEEF9"/>
<path d="M552.034 453.054L544.867 457.201V459.109L552.034 454.962V453.054Z" fill="#BDC1E4"/>
<path d="M564.605 458.14L571.765 453.993V441.629L564.605 445.776V458.14Z" fill="#EAEEF9"/>
<path d="M564.605 445.776L571.765 441.629V443.537L564.605 447.684V445.776Z" fill="#BDC1E4"/>
<path d="M534.877 387.272L488 360.136V366.468L534.877 393.604V387.272Z" fill="#DCE1F4"/>
<path d="M581.756 360.136L534.879 387.272V393.604L581.756 366.468V360.136Z" fill="#D0D4F6"/>
<path d="M534.877 333L488 360.136L534.877 387.272L581.755 360.136L534.877 333Z" fill="#EAEEF9"/>
</g>
<g clip-path="url(#clip1_1957_2178)">
<path d="M158 453L201 428.174V347.827L158 372.65V453Z" fill="url(#paint8_linear_1957_2178)"/>
<path d="M158 453L115 428.174V347.827L158 372.65V453Z" fill="url(#paint9_linear_1957_2178)"/>
<path d="M158 372.649L115 347.826L158 323L201 347.826L158 372.649Z" fill="#EFF1F7"/>
</g>
<g opacity="0.6" clip-path="url(#clip2_1957_2178)">
<path style="mix-blend-mode:multiply" d="M438.506 254.063H359.496L414.991 286.036L359.496 318H438.506L494.001 286.036L438.506 254.063Z" fill="url(#paint10_linear_1957_2178)"/>
<path d="M359.496 318L414.991 286.036V238.089L359.496 270.054V318Z" fill="#A3A9D0"/>
<path d="M359.495 270.054L304 238.09L359.495 206.142L414.99 238.09L359.495 270.054Z" fill="#F1F1F6"/>
<path d="M359.493 270.054L331.75 227.956L387.245 196L414.988 238.09L359.493 270.054Z" fill="#BBC0E6"/>
<path d="M331.752 227.956L304 238.09L359.495 206.142L387.247 196L331.752 227.956Z" fill="white"/>
<path d="M331.752 227.956L304 238.09V286.036L359.495 318V270.054L331.752 227.956Z" fill="#CED3F8"/>
</g>
<g opacity="0.6" clip-path="url(#clip3_1957_2178)">
<path style="mix-blend-mode:multiply" d="M300.671 111.905H211.82V156.571H300.671V111.905Z" fill="url(#paint11_linear_1957_2178)"/>
<path d="M211.819 156.577L175 135.181V58.3882L211.819 79.784V156.577Z" fill="#EAEEF9"/>
<path d="M188.471 83.7331L182.848 80.4634V70.7148L188.471 73.9846V83.7331Z" fill="white"/>
<path d="M188.471 73.9846L182.848 70.7148V72.2193L188.471 75.489V73.9846Z" fill="#D0D4F6"/>
<path d="M198.348 89.4717L203.971 92.7414V82.9929L198.348 79.7231V89.4717Z" fill="white"/>
<path d="M198.348 79.7231L203.971 82.9929V84.4973L198.348 81.2276V79.7231Z" fill="#D0D4F6"/>
<path d="M188.471 107.944L182.848 104.674V94.9253L188.471 98.195V107.944Z" fill="white"/>
<path d="M188.471 98.195L182.848 94.9253V96.4297L188.471 99.6995V98.195Z" fill="#D0D4F6"/>
<path d="M198.348 113.683L203.971 116.952V107.204L198.348 103.934V113.683Z" fill="white"/>
<path d="M198.348 103.934L203.971 107.204V108.708L198.348 105.439V103.934Z" fill="#D0D4F6"/>
<path d="M188.471 130.668L182.848 127.398V117.65L188.471 120.92V130.668Z" fill="white"/>
<path d="M188.471 120.92L182.848 117.65V119.154L188.471 122.424V120.92Z" fill="#D0D4F6"/>
<path d="M198.348 136.407L203.971 139.676V129.928L198.348 126.658V136.407Z" fill="white"/>
<path d="M198.348 126.658L203.971 129.928V131.432L198.348 128.163V126.658Z" fill="#D0D4F6"/>
<path d="M248.64 135.181L211.82 156.577V79.784L248.64 58.3882V135.181Z" fill="#DCE1F4"/>
<path d="M225.297 89.4717L219.668 92.7414V82.9929L225.297 79.7231V89.4717Z" fill="#EAEEF9"/>
<path d="M225.297 79.7231L219.668 82.9929V84.4973L225.297 81.2276V79.7231Z" fill="#BDC1E4"/>
<path d="M235.168 83.7331L240.791 80.4634V70.7148L235.168 73.9846V83.7331Z" fill="#EAEEF9"/>
<path d="M235.168 73.9846L240.791 70.7148V72.2193L235.168 75.489V73.9846Z" fill="#BDC1E4"/>
<path d="M225.297 113.683L219.668 116.952V107.204L225.297 103.934V113.683Z" fill="#EAEEF9"/>
<path d="M225.297 103.934L219.668 107.204V108.708L225.297 105.439V103.934Z" fill="#BDC1E4"/>
<path d="M235.168 107.944L240.791 104.674V94.9253L235.168 98.195V107.944Z" fill="#EAEEF9"/>
<path d="M235.168 98.195L240.791 94.9253V96.4297L235.168 99.6995V98.195Z" fill="#BDC1E4"/>
<path d="M225.297 136.407L219.668 139.676V129.928L225.297 126.658V136.407Z" fill="#EAEEF9"/>
<path d="M225.297 126.658L219.668 129.928V131.432L225.297 128.163V126.658Z" fill="#BDC1E4"/>
<path d="M235.168 130.668L240.791 127.398V117.65L235.168 120.92V130.668Z" fill="#EAEEF9"/>
<path d="M235.168 120.92L240.791 117.65V119.154L235.168 122.424V120.92Z" fill="#BDC1E4"/>
<path d="M211.819 74.7918L175 53.396V58.3885L211.819 79.7843V74.7918Z" fill="#DCE1F4"/>
<path d="M248.64 53.396L211.82 74.7918V79.7843L248.64 58.3885V53.396Z" fill="#D0D4F6"/>
<path d="M211.819 32L175 53.3958L211.819 74.7916L248.638 53.3958L211.819 32Z" fill="#EAEEF9"/>
</g>
</g>
<defs>
<linearGradient id="paint0_linear_1957_2178" x1="309.052" y1="145.371" x2="697.83" y2="545.533" gradientUnits="userSpaceOnUse">
<stop stop-color="white"/>
<stop offset="0.255208" stop-color="#F4F4FA" stop-opacity="0.83"/>
<stop offset="0.625" stop-color="#E6E6F3" stop-opacity="0.37"/>
<stop offset="1" stop-color="#F2F2F5" stop-opacity="0.44"/>
</linearGradient>
<linearGradient id="paint1_linear_1957_2178" x1="521.297" y1="232.212" x2="521.297" y2="108.011" gradientUnits="userSpaceOnUse">
<stop offset="0.25" stop-color="white"/>
<stop offset="0.52" stop-color="#F8F9FC"/>
<stop offset="0.9" stop-color="#E4E8F6"/>
<stop offset="1" stop-color="#DFE4F4"/>
</linearGradient>
<linearGradient id="paint2_linear_1957_2178" x1="483.156" y1="232.212" x2="483.156" y2="108.011" gradientUnits="userSpaceOnUse">
<stop offset="0.25" stop-color="white"/>
<stop offset="0.64" stop-color="#F5F7FB"/>
<stop offset="1" stop-color="#E9EDF7"/>
</linearGradient>
<linearGradient id="paint3_linear_1957_2178" x1="159.199" y1="283.597" x2="159.199" y2="159.396" gradientUnits="userSpaceOnUse">
<stop offset="0.25" stop-color="white"/>
<stop offset="0.52" stop-color="#F8F9FC"/>
<stop offset="0.9" stop-color="#E4E8F6"/>
<stop offset="1" stop-color="#DFE4F4"/>
</linearGradient>
<linearGradient id="paint4_linear_1957_2178" x1="121.059" y1="283.597" x2="121.059" y2="159.396" gradientUnits="userSpaceOnUse">
<stop offset="0.25" stop-color="white"/>
<stop offset="0.64" stop-color="#F5F7FB"/>
<stop offset="1" stop-color="#E9EDF7"/>
</linearGradient>
<linearGradient id="paint5_linear_1957_2178" x1="345.031" y1="552.971" x2="345.031" y2="420.482" gradientUnits="userSpaceOnUse">
<stop offset="0.25" stop-color="white"/>
<stop offset="0.52" stop-color="#F8F9FC"/>
<stop offset="0.9" stop-color="#E4E8F6"/>
<stop offset="1" stop-color="#DFE4F4"/>
</linearGradient>
<linearGradient id="paint6_linear_1957_2178" x1="304.343" y1="552.971" x2="304.343" y2="420.482" gradientUnits="userSpaceOnUse">
<stop offset="0.25" stop-color="white"/>
<stop offset="0.64" stop-color="#F5F7FB"/>
<stop offset="1" stop-color="#E9EDF7"/>
</linearGradient>
<linearGradient id="paint7_linear_1957_2178" x1="534.879" y1="462.671" x2="648.002" y2="462.671" gradientUnits="userSpaceOnUse">
<stop stop-color="#DCE1F4"/>
<stop offset="0.28" stop-color="#EBEDF8"/>
<stop offset="0.67" stop-color="#F9FAFD"/>
<stop offset="1" stop-color="white"/>
</linearGradient>
<linearGradient id="paint8_linear_1957_2178" x1="179.502" y1="453" x2="179.502" y2="347.827" gradientUnits="userSpaceOnUse">
<stop offset="0.25" stop-color="#FBFBFD"/>
<stop offset="0.73" stop-color="#E6E9F5"/>
<stop offset="0.88" stop-color="#DDE2F2"/>
</linearGradient>
<linearGradient id="paint9_linear_1957_2178" x1="136.498" y1="453" x2="136.498" y2="347.827" gradientUnits="userSpaceOnUse">
<stop offset="0.25" stop-color="#FAFAFC"/>
<stop offset="0.84" stop-color="#E7EBF5"/>
</linearGradient>
<linearGradient id="paint10_linear_1957_2178" x1="359.496" y1="286.028" x2="494.001" y2="286.028" gradientUnits="userSpaceOnUse">
<stop stop-color="#C4C9E4"/>
<stop offset="0.19" stop-color="#D6DAEC"/>
<stop offset="0.48" stop-color="#ECEEF6"/>
<stop offset="0.75" stop-color="#FAFAFC"/>
<stop offset="1" stop-color="white"/>
</linearGradient>
<linearGradient id="paint11_linear_1957_2178" x1="211.82" y1="134.241" x2="300.671" y2="134.241" gradientUnits="userSpaceOnUse">
<stop stop-color="#DCE1F4"/>
<stop offset="0.28" stop-color="#EBEDF8"/>
<stop offset="0.67" stop-color="#F9FAFD"/>
<stop offset="1" stop-color="white"/>
</linearGradient>
<clipPath id="clip0_1957_2178">
<rect width="160" height="158" fill="white" transform="translate(488 333)"/>
</clipPath>
<clipPath id="clip1_1957_2178">
<rect width="86" height="130" fill="white" transform="translate(115 323)"/>
</clipPath>
<clipPath id="clip2_1957_2178">
<rect width="190" height="122" fill="white" transform="translate(304 196)"/>
</clipPath>
<clipPath id="clip3_1957_2178">
<rect width="125.67" height="124.577" fill="white" transform="translate(175 32)"/>
</clipPath>
</defs>
</svg>
