<svg width="56" height="55" viewBox="0 0 56 55" fill="none" xmlns="http://www.w3.org/2000/svg">
<g clip-path="url(#clip0_2053_2874)">
<path fill-rule="evenodd" clip-rule="evenodd" d="M1.96866 50.5654C0.886025 49.943 0.199219 48.479 0.199219 46.4002C0.199219 42.6346 2.45278 38.2674 5.2286 36.6538C5.42075 36.5422 5.61038 36.4467 5.79701 36.3664C6.01173 29.351 9.86868 21.6107 14.589 18.8666C15.777 18.176 16.9108 17.8653 17.9453 17.8951C19.9676 10.9474 24.2133 4.49989 29.1183 1.64818C32.318 -0.211881 35.2373 -0.215923 37.4422 1.28293L43.3702 4.72924L46.1324 7.96186L46.4003 8.11746C46.4149 8.12604 46.4294 8.13413 46.444 8.14271L53.1475 12.0401L52.1662 13.5855L48.9293 16.6413C48.1848 21.7845 45.0378 27.155 41.2726 29.3439L26.1804 38.1178L8.79357 54.5325L1.96916 50.5648L1.96866 50.5654Z" fill="#E5FFFF"/>
<path fill-rule="evenodd" clip-rule="evenodd" d="M1.97011 50.7679C1.935 50.7679 1.90038 50.7589 1.86978 50.7407L8.69419 54.7083C8.77095 54.7528 8.86727 54.7417 8.93198 54.6805L26.3018 38.282L41.3739 29.5198C45.1661 27.3152 48.3468 21.9239 49.1184 16.7413L52.3041 13.7335C52.3161 13.7219 52.3267 13.7093 52.3357 13.6951L53.317 12.1498C53.3466 12.1033 53.3561 12.0467 53.3431 11.9932C53.33 11.9396 53.2959 11.8937 53.2483 11.8659L46.2628 7.80477L43.5231 4.59842C43.5086 4.58124 43.491 4.56659 43.4714 4.55548L37.5496 1.11271C35.289 -0.420502 32.2974 -0.431616 29.0189 1.47441C24.1109 4.32764 19.8516 10.7479 17.7967 17.6926C16.7718 17.6951 15.6561 18.0149 14.4896 18.6928C9.75073 21.4475 5.86118 29.1828 5.60181 36.234C5.44628 36.3058 5.28875 36.3876 5.12972 36.4801C2.30273 38.1229 0 42.5664 0 46.4012C0 48.5725 0.739984 50.0915 1.87078 50.7417C1.90088 50.7594 1.9355 50.7685 1.97011 50.7685V50.7679ZM2.07145 50.3911L2.06995 50.3901C1.03548 49.795 0.401347 48.3871 0.401347 46.4007C0.401347 42.7043 2.60575 38.4134 5.33039 36.8291C5.51501 36.7215 5.69763 36.6296 5.87673 36.5528C5.94847 36.522 5.99613 36.4518 5.99864 36.373C6.21085 29.4278 10.0171 21.7587 14.6903 19.0419C15.8412 18.3725 16.9384 18.0684 17.9402 18.0977C18.0315 18.1003 18.1128 18.0406 18.1384 17.9527C20.1451 11.0576 24.3512 4.65399 29.2191 1.82399C32.3381 0.0109177 35.1821 -0.00928921 37.3308 1.45168C37.3348 1.45421 37.3388 1.45673 37.3429 1.45926L43.2412 4.88839L45.9809 8.09474C45.9954 8.11192 46.013 8.12657 46.0325 8.13768L52.866 12.1104L52.0111 13.4562L48.7923 16.4948C48.7592 16.5261 48.7376 16.5675 48.7311 16.613C47.9956 21.6951 44.8932 27.007 41.1727 29.1697L26.0806 37.9436C26.067 37.9511 26.055 37.9607 26.0434 37.9713L8.76543 54.2835L2.07045 50.3911H2.07145ZM1.97011 50.7674C1.96761 50.7634 1.79503 50.4532 1.77897 50.5048C1.71727 50.7033 1.9671 50.7664 1.97011 50.7674Z" fill="#05BAC6"/>
<path fill-rule="evenodd" clip-rule="evenodd" d="M5.69774 36.5421L12.3997 40.4385C12.4956 40.4941 12.6185 40.4613 12.6742 40.3648C12.7293 40.2683 12.6967 40.1445 12.6004 40.089L5.89841 36.1925C5.80259 36.137 5.67968 36.1698 5.62449 36.2663C5.56931 36.3628 5.60191 36.4866 5.69774 36.5421Z" fill="#05BAC6"/>
<path fill-rule="evenodd" clip-rule="evenodd" d="M11.9317 54.1956C9.15591 55.8092 6.90234 54.0623 6.90234 50.2972C6.90234 46.5321 9.15591 42.1649 11.9317 40.5508C12.1239 40.4392 12.3135 40.3437 12.5001 40.2639C12.7149 33.2485 16.5718 25.5082 21.2922 22.7641C22.4801 22.0735 23.6139 21.7629 24.6484 21.7927C26.6707 14.845 30.9165 8.39742 35.8214 5.5457C41.8487 2.0418 46.8801 5.12438 48.0154 12.4267C52.3153 9.95538 55.799 12.5772 55.799 18.2973C55.799 24.0175 52.2932 30.7312 47.9757 33.2415L11.9317 54.1956Z" fill="#FAFAFC"/>
<mask id="mask0_2053_2874" style="mask-type:luminance" maskUnits="userSpaceOnUse" x="6" y="4" width="50" height="51">
<path d="M11.9317 54.1956C9.15591 55.8092 6.90234 54.0623 6.90234 50.2972C6.90234 46.5321 9.15591 42.1649 11.9317 40.5508C12.1239 40.4392 12.3135 40.3437 12.5001 40.2639C12.7149 33.2485 16.5718 25.5082 21.2922 22.7641C22.4801 22.0735 23.6139 21.7629 24.6484 21.7927C26.6707 14.845 30.9165 8.39742 35.8214 5.5457C41.8487 2.0418 46.8801 5.12438 48.0154 12.4267C52.3153 9.95538 55.799 12.5772 55.799 18.2973C55.799 24.0175 52.2932 30.7312 47.9757 33.2415L11.9317 54.1956Z" fill="white"/>
</mask>
<g mask="url(#mask0_2053_2874)">
<path fill-rule="evenodd" clip-rule="evenodd" d="M35.2701 24.9471C41.1022 21.5564 45.8371 24.3091 45.8371 31.0906C45.8371 37.8721 41.1022 46.1302 35.2701 49.5204C29.438 52.9106 24.7031 50.1584 24.7031 43.377C24.7031 36.5955 29.438 28.3379 35.2701 24.9471Z" fill="#E5FFFF"/>
</g>
<path fill-rule="evenodd" clip-rule="evenodd" d="M12.0306 54.3707L48.0741 33.416C52.4438 30.876 55.9977 24.1031 55.9977 18.2966C55.9977 15.3565 55.0857 13.2191 53.6378 12.1279C52.2286 11.0655 50.3006 10.9716 48.1649 12.1113C47.5509 8.53612 45.9911 5.9961 43.8504 4.75842C41.643 3.48184 38.808 3.57429 35.7186 5.37069C30.8107 8.22393 26.5509 14.6447 24.4965 21.5889C23.4715 21.5914 22.3558 21.9112 21.1894 22.5891C16.4505 25.3438 12.5609 33.0791 12.3015 40.1303C12.146 40.2015 11.9885 40.2834 11.8289 40.3763C9.00195 42.0197 6.69922 46.4632 6.69922 50.2975C6.69922 52.2591 7.30274 53.6887 8.25143 54.4243C9.21868 55.1739 10.5552 55.2285 12.0296 54.3712L12.0306 54.3707ZM47.9738 33.4433L47.8734 33.0664L11.8299 54.0206C10.5286 54.7769 9.35062 54.7648 8.49725 54.1035C7.62483 53.4276 7.10157 52.101 7.10157 50.297C7.10157 46.6006 9.30597 42.3096 12.0306 40.7259C12.2152 40.6183 12.3978 40.5264 12.577 40.4496C12.6487 40.4188 12.6969 40.3486 12.6989 40.2697C12.9111 33.3246 16.7174 25.6555 21.3905 22.9387C22.5414 22.2693 23.6386 21.9652 24.6405 21.9945C24.7318 21.997 24.813 21.9374 24.8386 21.8495C26.8454 14.9544 31.0515 8.55077 35.9193 5.72078C38.8572 4.01278 41.5512 3.89507 43.6503 5.10901C45.7599 6.32952 47.2584 8.88015 47.8142 12.4578C47.8243 12.5235 47.8659 12.5796 47.9256 12.6083C47.9853 12.6371 48.0546 12.6346 48.1122 12.6018C50.1767 11.4156 52.0445 11.4323 53.397 12.4517C54.7661 13.4838 55.5959 15.5171 55.5959 18.2971C55.5959 23.9662 52.1393 30.586 47.8729 33.0664L47.9733 33.4433H47.9738Z" fill="#05BAC6"/>
<path fill-rule="evenodd" clip-rule="evenodd" d="M17.8696 18.0861L24.545 21.9668C24.6408 22.0224 24.7638 21.9896 24.8189 21.8931C24.8741 21.7966 24.8415 21.6728 24.7457 21.6173L18.0703 17.7365C17.9745 17.6809 17.8516 17.7138 17.7964 17.8102C17.7412 17.9067 17.7738 18.0305 17.8696 18.0861Z" fill="#05BAC6"/>
<path fill-rule="evenodd" clip-rule="evenodd" d="M46.0539 26.9038C46.0539 26.9038 45.8788 26.9613 45.945 27.0573C46.7819 28.2763 47.26 29.9717 47.26 32.0737C47.26 38.5268 42.7543 46.3854 37.2042 49.6114C35.5677 50.5626 34.022 51.0062 32.6549 50.9921L32.3895 51.6518L30.1801 50.3677H30.1811C28.3103 49.3305 27.1484 47.0421 27.1484 43.7655C27.1484 37.3124 31.6541 29.4539 37.2037 26.2278C39.983 24.6123 42.5005 24.4622 44.3211 25.5261L46.4753 26.7785L46.0529 26.9038H46.0539Z" fill="#05BAC6"/>
<path fill-rule="evenodd" clip-rule="evenodd" d="M30.0812 50.5428L32.2907 51.827C32.3408 51.8563 32.4015 51.8624 32.4562 51.8432C32.5109 51.824 32.555 51.782 32.5771 51.728L32.7918 51.1945C34.1549 51.1789 35.6876 50.7277 37.306 49.7866C42.9113 46.5282 47.4616 38.5909 47.4616 32.0736C47.4616 29.9963 47.0005 28.3085 46.1973 27.0719L46.5335 26.9723C46.6102 26.9496 46.6664 26.8829 46.6759 26.8026C46.6855 26.7223 46.6463 26.644 46.5771 26.6036L44.4229 25.3512C42.5511 24.258 39.9619 24.3924 37.1048 26.0529C31.4995 29.3118 26.9492 37.2486 26.9492 43.7659C26.9492 47.1349 28.1623 49.4789 30.0857 50.5444M44.2222 25.7008L45.9731 26.7187C45.9375 26.7334 45.8612 26.7688 45.8115 26.8203C45.7594 26.8738 45.7303 26.941 45.7303 27.0128C45.7303 27.0613 45.7423 27.1153 45.7809 27.1719C46.5982 28.3626 47.0602 30.0201 47.0602 32.0736C47.0602 38.4621 42.5998 46.2423 37.1048 49.4365C35.5044 50.367 33.9944 50.8035 32.6579 50.7904C32.5756 50.7894 32.5009 50.8399 32.4698 50.9167L32.2912 51.3612L30.2995 50.2034C30.2929 50.1988 30.2859 50.1943 30.2789 50.1902C28.4608 49.1829 27.3501 46.95 27.3501 43.7659C27.3501 37.3774 31.811 29.5972 37.305 26.403C40.0066 24.8324 42.4518 24.6672 44.2212 25.7008H44.2222Z" fill="#05BAC6"/>
<path fill-rule="evenodd" clip-rule="evenodd" d="M39.38 27.4916C44.9296 24.2651 49.4357 26.8844 49.4357 33.3375C49.4357 39.7906 44.9301 47.6491 39.38 50.8752C33.8303 54.1017 29.3242 51.4819 29.3242 45.0293C29.3242 38.5767 33.8298 30.7177 39.38 27.4916Z" fill="#3FD5DF"/>
<path fill-rule="evenodd" clip-rule="evenodd" d="M39.2811 27.3167C33.6758 30.5756 29.125 38.5124 29.125 45.0297C29.125 48.3462 30.3009 50.6695 32.1717 51.7576C34.043 52.8453 36.6287 52.7094 39.4813 51.0509C45.0866 47.792 49.6374 39.8552 49.6374 33.3379C49.6374 30.0214 48.4614 27.6981 46.5906 26.61C44.7194 25.5223 42.1337 25.6582 39.2811 27.3167ZM39.4818 27.6668C42.1793 26.0987 44.6205 25.9315 46.39 26.9601C48.1594 27.9886 49.236 30.2013 49.236 33.3379C49.236 39.7264 44.775 47.5066 39.2811 50.7008C36.5835 52.2689 34.1418 52.4361 32.3729 51.4075C30.6035 50.379 29.5268 48.1658 29.5268 45.0297C29.5268 38.6413 33.9878 30.861 39.4823 27.6668H39.4818Z" fill="#05BAC6"/>
<path fill-rule="evenodd" clip-rule="evenodd" d="M42.9132 39.0099C42.946 39.0329 42.9677 39.0677 42.9749 39.1074C42.9816 39.147 42.9726 39.1873 42.9497 39.2203C42.8069 39.4247 42.5249 39.827 42.3999 40.006C42.3655 40.0553 42.298 40.0673 42.2491 40.0327C41.8081 39.7244 39.8683 38.3682 39.8683 38.3682C39.8683 38.3682 37.2995 42.0802 36.854 42.7231C36.8367 42.748 36.8101 42.765 36.7804 42.7706C36.7508 42.7762 36.7202 42.769 36.6949 42.7517C36.5315 42.6368 36.197 42.4025 36.0445 42.2957C36.0008 42.2651 35.9903 42.2049 36.0207 42.1608C36.4376 41.5585 39.0987 37.7155 39.573 37.0304C39.6189 36.9643 39.6911 36.9208 39.7708 36.9124C39.7769 36.9119 39.7825 36.9113 39.7886 36.9103C39.8664 36.9018 39.9442 36.9221 40.0084 36.9671C40.4701 37.2919 42.404 38.6516 42.9127 39.0098L42.9132 39.0099Z" fill="white"/>
<path fill-rule="evenodd" clip-rule="evenodd" d="M34.9328 37.35C34.9293 37.3918 34.948 37.4325 34.9826 37.4567C35.0168 37.4809 35.0613 37.4847 35.0991 37.4666C36.3367 36.8815 43.447 33.5199 44.5776 32.9855C44.6715 32.9413 44.7347 32.8498 44.7435 32.7462L44.7601 32.5514C44.7714 32.4185 44.7114 32.2897 44.6031 32.2135C44.4943 32.1373 44.3538 32.1253 44.2337 32.182C42.4111 33.0438 36.8427 35.6759 35.3648 36.3749C35.1397 36.4814 34.9882 36.7002 34.9669 36.9494L34.9328 37.35Z" fill="white"/>
<path fill-rule="evenodd" clip-rule="evenodd" d="M43.7692 33.9459C43.7657 33.9877 43.7849 34.0284 43.8191 34.0526C43.8532 34.0768 43.8977 34.0806 43.9355 34.0625C44.104 33.9825 44.3511 33.8657 44.5089 33.7914C44.6028 33.7472 44.666 33.6558 44.6748 33.5521L44.7506 32.6631C44.7639 32.5071 44.6937 32.3561 44.5663 32.2672C44.439 32.1778 44.274 32.1637 44.1334 32.2303C44.1067 32.2427 44.0815 32.2548 44.0584 32.266C43.9645 32.3102 43.9013 32.4017 43.8925 32.5054L43.7697 33.946L43.7692 33.9459Z" fill="white"/>
<path fill-rule="evenodd" clip-rule="evenodd" d="M34.863 38.1559C34.8594 38.1977 34.8781 38.2383 34.9128 38.2625C34.947 38.2867 34.9915 38.2905 35.0293 38.2725C35.1977 38.1925 35.4448 38.0757 35.6027 38.0014C35.6966 37.9572 35.7598 37.8657 35.7686 37.762L35.8913 36.3214C35.8949 36.2796 35.8757 36.239 35.8415 36.2148C35.8073 36.1906 35.7628 36.1868 35.725 36.2048C35.6448 36.2426 35.5472 36.2891 35.4496 36.335C35.1715 36.4665 34.9838 36.7374 34.9576 37.0455L34.8629 38.1564L34.863 38.1559Z" fill="white"/>
<path fill-rule="evenodd" clip-rule="evenodd" d="M38.4361 48.0606C38.4326 48.1024 38.4512 48.1435 38.4859 48.1672C38.5201 48.1914 38.5646 48.1952 38.6024 48.1772C38.8144 48.0766 39.1601 47.9134 39.3574 47.8202C39.4513 47.7759 39.5144 47.6845 39.5233 47.5808L40.3664 37.6839C40.37 37.6421 40.3513 37.6015 40.3166 37.5772C40.2824 37.553 40.2379 37.5492 40.2001 37.5673C39.9876 37.6678 39.6424 37.8311 39.4446 37.9242C39.3508 37.9685 39.2876 38.0599 39.2787 38.1636L38.4356 48.0605L38.4361 48.0606Z" fill="white"/>
</g>
<defs>
<clipPath id="clip0_2053_2874">
<rect width="56" height="55" fill="white"/>
</clipPath>
</defs>
</svg>
